<?xml version="1.0" encoding="UTF-8"?>
<svg width="154px" height="130px" viewBox="0 0 154 130" version="1.1" xmlns="http://www.w3.org/2000/svg" xmlns:xlink="http://www.w3.org/1999/xlink">
    <!-- Generator: sketchtool 50.2 (55047) - http://www.bohemiancoding.com/sketch -->
    <title>62753650-3168-41B1-9BB9-94A688BF4339</title>
    <desc>Created with sketchtool.</desc>
    <defs>
        <linearGradient x1="83.5994098%" y1="83.5994098%" x2="14.6446609%" y2="14.6446609%" id="linearGradient-1">
            <stop stop-color="#ECDCFC" offset="0%"></stop>
            <stop stop-color="#DEEEFF" offset="100%"></stop>
        </linearGradient>
    </defs>
    <g id="frontend" stroke="none" stroke-width="1" fill="none" fill-rule="evenodd">
        <g id="pereezdy-desktop" transform="translate(-915.000000, -1585.000000)">
            <g id="Group-25" transform="translate(-96.000000, 1408.000000)">
                <g id="УТП" transform="translate(129.000000, 0.000000)">
                    <g id="аукцион" transform="translate(780.000000, 141.000000)">
                        <g id="aukcion" transform="translate(89.000000, 35.000000)">
                            <path d="M46.3661933,88.20323 C54.7452495,112.525647 77.8319479,130 105,130 C139.241654,130 167,102.241654 167,68 C167,33.7583455 139.241654,6 105,6 C94.9402348,6 85.4400505,8.3958509 77.03892,12.6480798 C70.548782,8.44223678 62.8095985,6 54.5,6 C31.5801829,6 13,24.5801829 13,47.5 C13,67.6360247 27.3408588,84.4225624 46.3661933,88.20323 Z" id="Combined-Shape" fill="url(#linearGradient-1)"></path>
                            <g id="молоток">
                                <g id="Group-63" transform="translate(72.500000, 73.000000) rotate(-315.000000) translate(-72.500000, -73.000000) translate(36.000000, 7.000000)">
                                    <path d="M12.0677023,3.50582274 C12.9251911,2.65403642 13.9993577,2.02832445 15.1996336,1.7088724 C21.984817,-0.0969963379 28.9190043,-1 36,-1 C43.161758,-1 50.4001269,-0.0762957934 57.7135054,1.77009208 C58.9337485,2.07816443 60.0280619,2.70209194 60.901721,3.55936881 C62.1146537,1.41159774 64.415974,0 67,0 C70.8659932,0 74,3.13400675 74,7 L74,43 C74,46.8659932 70.8659932,50 67,50 C64.2392804,50 61.8163052,48.3914458 60.6818609,46.0186049 C59.9762312,46.6536204 59.1414449,47.1447657 58.2202583,47.4528559 C54.2888759,48.7677038 50.3554618,49.7172841 46.4205348,50.301149 L48.673745,121.652805 C48.8654956,127.72491 44.0985263,132.802769 38.026421,132.994519 C37.9107252,132.998173 37.794979,133 37.6792256,133 L35.3207744,133 C29.2456421,133 24.3207744,128.075132 24.3207744,122 C24.3207744,121.884247 24.3226015,121.7685 24.326255,121.652805 L26.5835402,50.1721097 C22.7483887,49.5718305 18.8503473,48.6452701 14.8895788,47.3928707 C13.939325,47.0923984 13.0772624,46.5979409 12.3498833,45.9513015 C11.2299662,48.3593877 8.78857997,50 6,50 C2.13400675,50 -1,46.8659932 -1,43 L-1,7 C-1,3.13400675 2.13400675,0 6,0 C8.56131014,0 10.8464153,1.38710278 12.0677023,3.50582274 Z" id="Combined-Shape" stroke="#5070B2" stroke-width="2" fill="#D8D8D8"></path>
                                    <rect id="Rectangle-78" stroke="#5070B2" fill="#FFFFFF" x="0.5" y="1.5" width="11" height="47" rx="5.5"></rect>
                                    <path d="M11,35 L11,43 C11,45.7614237 8.76142375,48 6,48 L6,48 C3.23857625,48 1,45.7614237 1,43 L1,35 C2.66666667,36.3333333 4.33333333,37 6,37 C7.66666667,37 9.33333333,36.3333333 11,35 Z" id="Rectangle-78-Copy-4" fill="#F7F7F7"></path>
                                    <rect id="Rectangle-78-Copy-2" stroke="#5070B2" fill="#FFFFFF" x="61.5" y="1.5" width="11" height="47" rx="5.5"></rect>
                                    <path d="M36.5,37.5 C32.0327942,37.5 28.3724629,41.0465665 28.2314636,45.5115465 L25.8255077,121.700149 C25.8223523,121.800069 25.8207744,121.900031 25.8207744,122 C25.8207744,127.246705 30.0740693,131.5 35.3207744,131.5 L37.6792256,131.5 C37.7791945,131.5 37.8791571,131.498422 37.9790761,131.495267 C43.2231671,131.329664 47.3400952,126.94424 47.1744923,121.700149 L44.7685364,45.5115465 C44.6275371,41.0465665 40.9672058,37.5 36.5,37.5 Z" id="Rectangle-79" stroke="#5070B2" fill="#FFFFFF"></path>
                                    <path d="M46.5876652,117.607329 L46.7065426,121.741301 C46.8494181,126.70981 42.9374694,130.853406 37.9689605,130.996281 C37.8827497,130.99876 37.7965078,131 37.7102614,131 L35.2911992,131 C30.3206365,131 26.2911992,126.970563 26.2911992,122 C26.2911992,121.913754 26.2924389,121.827512 26.294918,121.741301 L26.404626,117.926197 C29.9451553,119.203594 33.3678917,119.816186 36.6728351,119.763971 C39.9777784,119.711757 43.2827218,118.992877 46.5876652,117.607329 Z" id="Rectangle-79-Copy" fill="#F7F7F7"></path>
                                    <path d="M72,35 L72,43 C72,45.7614237 69.7614237,48 67,48 L67,48 C64.2385763,48 62,45.7614237 62,43 L62,35 C63.6666667,36.3333333 65.3333333,37 67,37 C68.6666667,37 70.3333333,36.3333333 72,35 Z" id="Rectangle-78-Copy-5" fill="#F7F7F7"></path>
                                    <path d="M28.5999756,48.4000244 L28.2000122,60 C32.0000203,62.6666667 37.5666911,64 44.9000244,64 C44.6999919,59 44.5666504,53.6666667 44.5,48 L28.5999756,48.4000244 Z" id="Path-17" fill="#F7F7F7"></path>
                                    <path d="M15.5854268,3.15841151 C13.1765203,3.7995392 11.5000067,5.98061715 11.5000067,8.47338185 L11.5,40.7185793 C11.5,43.1173595 13.0546498,45.23946 15.3418139,45.9626621 C22.8013849,48.3213949 30.0204193,49.5 37,49.5 C43.913036,49.5 50.8272493,48.3437733 57.7444882,46.0303079 C59.987687,45.2800717 61.499993,43.1796371 61.499993,40.8143051 L61.5,8.55713579 C61.5,6.03811936 59.7887032,3.8410803 57.3463233,3.22446315 C50.1514368,1.40798448 43.0362631,0.5 36,0.5 C29.0489646,0.5 22.2444728,1.38611407 15.5854268,3.15841151 Z" id="Rectangle-78-Copy" stroke="#5070B2" fill="#FFFFFF"></path>
                                    <rect id="Rectangle-80" fill="#5070B2" x="30" y="23" width="14" height="4" rx="2"></rect>
                                    <rect id="Rectangle-80-Copy" fill="#5070B2" x="31" y="13" width="12" height="3" rx="1.5"></rect>
                                    <rect id="Rectangle-80-Copy-3" fill="#5070B2" x="31" y="35" width="12" height="3" rx="1.5"></rect>
                                    <rect id="Rectangle-80-Copy-2" fill="#5070B2" x="32" y="4" width="10" height="2" rx="1"></rect>
                                    <path d="M61,35 L60.9999987,40.800031 C60.9999987,43.0645342 59.5345191,45.0686758 57.3766088,45.7552599 C50.5778699,47.91842 43.779131,49 36.9803922,49 C30.1232721,49 23.0312434,47.899765 15.7043063,45.699295 L15.7043049,45.6992995 C13.5055346,45.0389515 12,43.0148348 12,40.7190452 L12,35 C20.1666667,37 28.3333333,38 36.5,38 C44.6666667,38 52.8333333,37 61,35 Z" id="Rectangle-78-Copy-3" fill="#F7F7F7"></path>
                                    <rect id="Rectangle-80-Copy-4" fill="#5070B2" x="32" y="44" width="10" height="2" rx="1"></rect>
                                </g>
                                <path d="M82.7272727,118 L81.5,118 C78.4624339,118 76,120.462434 76,123.5 C76,126.537566 78.4624339,129 81.5,129 L148.5,129 C151.537566,129 154,126.537566 154,123.5 C154,120.462434 151.537566,118 148.5,118 L147.272727,118 L141.497557,110.059142 C140.556669,108.76542 139.05356,108 137.453877,108 L92.546123,108 C90.94644,108 89.4433308,108.76542 88.5024425,110.059142 L82.7272727,118 Z" id="Combined-Shape" stroke="#5070B2" stroke-width="3" fill="#FFFFFF"></path>
                                <rect id="Rectangle-77" stroke="#979797" fill="#D8D8D8" x="76.5" y="118.5" width="77" height="10" rx="5"></rect>
                                <rect id="Rectangle-81" stroke="#5070B2" fill="#F7F7F7" x="77.5" y="119" width="75" height="8.5" rx="4.25"></rect>
                            </g>
                        </g>
                    </g>
                </g>
            </g>
        </g>
    </g>
</svg>