<?xml version="1.0" encoding="UTF-8"?>
<svg width="159px" height="132px" viewBox="0 0 159 132" version="1.1" xmlns="http://www.w3.org/2000/svg" xmlns:xlink="http://www.w3.org/1999/xlink">
    <!-- Generator: sketchtool 50.2 (55047) - http://www.bohemiancoding.com/sketch -->
    <title>8C70FBE8-83C4-413A-8BED-FEF5A0C55229</title>
    <desc>Created with sketchtool.</desc>
    <defs>
        <linearGradient x1="81.8637225%" y1="81.8637225%" x2="14.6446609%" y2="14.6446609%" id="linearGradient-1">
            <stop stop-color="#E2FBDB" offset="0%"></stop>
            <stop stop-color="#FDF1D2" offset="100%"></stop>
        </linearGradient>
    </defs>
    <g id="frontend" stroke="none" stroke-width="1" fill="none" fill-rule="evenodd">
        <g id="pereezdy-desktop" transform="translate(-141.000000, -1588.000000)">
            <g id="Group-25" transform="translate(-96.000000, 1408.000000)">
                <g id="УТП" transform="translate(129.000000, 0.000000)">
                    <g id="экономия" transform="translate(0.000000, 141.000000)">
                        <g id="econom" transform="translate(108.000000, 39.000000)">
                            <path d="M143.492789,15.7794181 C166.726916,39.0135452 162.437762,80.9726624 133.912695,109.497729 C109.13964,134.270784 71,135 51,127.5 C31,120 20.395522,113.725322 10.5562673,97.9792231 C-6.16624127,71.2176152 -2.05373972,38.4823706 19.7417966,24.863008 C30.0566091,18.4175978 42.4833375,17.4086403 54.4853283,20.9706368 C82.7558164,-3.54710624 121.50743,-6.20594167 143.492789,15.7794181 Z" id="Combined-Shape" fill="url(#linearGradient-1)"></path>
                            <g id="watch" transform="translate(18.000000, 5.000000)">
                                <circle id="Oval-8" stroke="#5070B2" stroke-width="3" fill="#F7F7F7" cx="62" cy="62" r="60.5"></circle>
                                <circle id="Oval-8-Copy-6" stroke="#5070B2" fill="#FFFFFF" cx="62" cy="62" r="49.5"></circle>
                                <circle id="Oval-20" fill="#F7F7F7" cx="55" cy="71" r="20"></circle>
                                <path d="M62,23 C60.3431458,23 59,21.6568542 59,20 C59,18.3431458 60.3431458,17 62,17 C63.6568542,17 65,18.3431458 65,20 C65,21.6568542 63.6568542,23 62,23 Z M62,107 C60.3431458,107 59,105.656854 59,104 C59,102.343146 60.3431458,101 62,101 C63.6568542,101 65,102.343146 65,104 C65,105.656854 63.6568542,107 62,107 Z M89.5771645,34.4228355 C88.4055916,33.2512627 88.4055916,31.3517677 89.5771645,30.1801948 C90.7487373,29.008622 92.6482323,29.008622 93.8198052,30.1801948 C94.991378,31.3517677 94.991378,33.2512627 93.8198052,34.4228355 C92.6482323,35.5944084 90.7487373,35.5944084 89.5771645,34.4228355 Z M30.1801948,93.8198052 C29.008622,92.6482323 29.008622,90.7487373 30.1801948,89.5771645 C31.3517677,88.4055916 33.2512627,88.4055916 34.4228355,89.5771645 C35.5944084,90.7487373 35.5944084,92.6482323 34.4228355,93.8198052 C33.2512627,94.991378 31.3517677,94.991378 30.1801948,93.8198052 Z M101,62 C101,60.3431458 102.343146,59 104,59 C105.656854,59 107,60.3431458 107,62 C107,63.6568542 105.656854,65 104,65 C102.343146,65 101,63.6568542 101,62 Z M17,62 C17,60.3431458 18.3431458,59 20,59 C21.6568542,59 23,60.3431458 23,62 C23,63.6568542 21.6568542,65 20,65 C18.3431458,65 17,63.6568542 17,62 Z M89.5771645,89.5771645 C90.7487373,88.4055916 92.6482323,88.4055916 93.8198052,89.5771645 C94.991378,90.7487373 94.991378,92.6482323 93.8198052,93.8198052 C92.6482323,94.991378 90.7487373,94.991378 89.5771645,93.8198052 C88.4055916,92.6482323 88.4055916,90.7487373 89.5771645,89.5771645 Z M30.1801948,30.1801948 C31.3517677,29.008622 33.2512627,29.008622 34.4228355,30.1801948 C35.5944084,31.3517677 35.5944084,33.2512627 34.4228355,34.4228355 C33.2512627,35.5944084 31.3517677,35.5944084 30.1801948,34.4228355 C29.008622,33.2512627 29.008622,31.3517677 30.1801948,30.1801948 Z" id="Combined-Shape" fill="#5070B2"></path>
                                <polyline id="Path-15" stroke="#5070B2" stroke-width="4" stroke-linecap="round" stroke-linejoin="round" points="62 31 62 62.0036763 86.5 87"></polyline>
                            </g>
                        </g>
                    </g>
                </g>
            </g>
        </g>
    </g>
</svg>