<?xml version="1.0" encoding="UTF-8"?>
<svg width="448px" height="140px" viewBox="0 0 448 140" version="1.1" xmlns="http://www.w3.org/2000/svg" xmlns:xlink="http://www.w3.org/1999/xlink">
    <!-- Generator: Sketch 50.2 (55047) - http://www.bohemiancoding.com/sketch -->
    <title>газель</title>
    <desc>Created with Sketch.</desc>
    <defs></defs>
    <g id="frontend" stroke="none" stroke-width="1" fill="none" fill-rule="evenodd">
        <g id="pereezdy-desktop" transform="translate(-538.000000, -374.000000)">
            <g id="газель-и-мебель" transform="translate(538.000000, 253.000000)">
                <g id="газель" transform="translate(0.000000, 121.000000)">
                    <g id="Group-36" transform="translate(67.000000, 0.000000)">
                        <path d="M10.2126237,1.5 L1.85548083,40.5 L52.1445192,40.5 L43.7873763,1.5 L10.2126237,1.5 Z" id="Rectangle-25" stroke="#252525" stroke-width="3" fill="#FFEA9C"></path>
                        <polygon id="Rectangle-25-Copy" fill="#F3DA7F" points="11.3999939 3 19 3 15 39 3.69999695 39"></polygon>
                        <polygon id="Rectangle-25-Copy-2" fill="#FFF6C7" transform="translate(42.349998, 21.000000) scale(-1, 1) translate(-42.349998, -21.000000) " points="42.3999939 3 50 3 46 39 34.6999969 39"></polygon>
                        <rect id="Rectangle-26" fill="#252525" x="26" y="39" width="4" height="100"></rect>
                        <path d="M4.5,27.5 L49.5111097,27.5" id="Line-9" stroke="#252525" stroke-linecap="square"></path>
                        <path d="M39.5,40.5 L39.5,55.5" id="Line-10" stroke="#252525" stroke-linecap="square"></path>
                        <circle id="Oval-3" fill="#252525" cx="39.5" cy="55.5" r="2.5"></circle>
                    </g>
                    <g id="Group-31" transform="translate(59.000000, 67.000000)">
                        <path d="M147,21 L147,8 C147,3.581722 143.418278,-8.11624501e-16 139,0 L85,0 C82.3224411,4.91859582e-16 79.9521147,1.31541821 78.5,3.33527522 C77.0478853,1.31541821 74.6775589,-4.91859582e-16 72,0 L18,0 C13.581722,8.11624501e-16 10,3.581722 10,8 L10,21 L8,21 C3.581722,21 -5.41083001e-16,24.581722 0,29 L0,71 L160,71 L160,29 C160,24.581722 156.418278,21 152,21 L147,21 Z" id="Combined-Shape" stroke="#252525" stroke-width="4" fill="#BEAB96"></path>
                        <path d="M10.5,49.5 L78.5,49.5 L78.5,8 C78.5,3.85786438 75.1421356,0.5 71,0.5 L18,0.5 C13.8578644,0.5 10.5,3.85786438 10.5,8 L10.5,49.5 Z" id="Rectangle-23" stroke="#252525" fill="#A79078"></path>
                        <path d="M78.5,49.5 L146.5,49.5 L146.5,8 C146.5,3.85786438 143.142136,0.5 139,0.5 L86,0.5 C81.8578644,0.5 78.5,3.85786438 78.5,8 L78.5,49.5 Z" id="Rectangle-23-Copy" stroke="#252525" fill="#A79078"></path>
                        <path d="M21,5 L71,5 C74.3137085,5 77,7.6862915 77,11 L77,50 L15,50 L15,11 C15,7.6862915 17.6862915,5 21,5 Z" id="Rectangle-23-Copy-11" fill="#BEAB96"></path>
                        <path d="M89,5 L139,5 C142.313708,5 145,7.6862915 145,11 L145,50 L83,50 L83,11 C83,7.6862915 85.6862915,5 89,5 Z" id="Rectangle-23-Copy-12" fill="#BEAB96"></path>
                        <path d="M30.5,70.5 L129.5,70.5 L129.5,49 C129.5,44.8578644 126.142136,41.5 122,41.5 L38,41.5 C33.8578644,41.5 30.5,44.8578644 30.5,49 L30.5,70.5 Z" id="Rectangle-23-Copy-2" stroke="#252525" fill="#A79078"></path>
                        <path d="M0.5,70.5 L32.5,70.5 L32.5,29 C32.5,24.8578644 29.1421356,21.5 25,21.5 L8,21.5 C3.85786438,21.5 0.5,24.8578644 0.5,29 L0.5,70.5 Z" id="Rectangle-23-Copy-3" stroke="#252525" fill="#A79078"></path>
                        <path d="M12,27 L25,27 C28.3137085,27 31,29.6862915 31,33 L31,70 L6,70 L6,33 C6,29.6862915 8.6862915,27 12,27 Z" id="Rectangle-23-Copy-6" fill="#BEAB96"></path>
                        <path d="M42,46 L120,46 C123.313708,46 126,48.6862915 126,52 L126,70 L36,70 L36,52 C36,48.6862915 38.6862915,46 42,46 Z" id="Rectangle-23-Copy-10" fill="#BEAB96"></path>
                        <path d="M127.5,70.5 L159.5,70.5 L159.5,29 C159.5,24.8578644 156.142136,21.5 152,21.5 L135,21.5 C130.857864,21.5 127.5,24.8578644 127.5,29 L127.5,70.5 Z" id="Rectangle-23-Copy-4" stroke="#252525" fill="#A79078"></path>
                        <path d="M139,27 L152,27 C155.313708,27 158,29.6862915 158,33 L158,70 L133,70 L133,33 C133,29.6862915 135.686292,27 139,27 Z" id="Rectangle-23-Copy-9" fill="#BEAB96"></path>
                        <g id="Group" opacity="0.100000001" transform="translate(13.000000, 7.000000)" stroke="#000000">
                            <circle id="Oval-5" cx="8" cy="4" r="3.5"></circle>
                            <circle id="Oval-5-Copy" cx="4" cy="29" r="3.5"></circle>
                            <circle id="Oval-5-Copy-2" cx="4" cy="54" r="3.5"></circle>
                            <circle id="Oval-5-Copy-5" cx="31" cy="4" r="3.5"></circle>
                            <circle id="Oval-5-Copy-3" cx="33" cy="52" r="3.5"></circle>
                            <circle id="Oval-5-Copy-8" cx="55" cy="4" r="3.5"></circle>
                            <circle id="Oval-5-Copy-6" cx="57" cy="52" r="3.5"></circle>
                        </g>
                        <g id="Group-Copy" opacity="0.100000001" transform="translate(86.000000, 7.000000)" stroke="#000000">
                            <circle id="Oval-5" cx="4" cy="4" r="3.5"></circle>
                            <circle id="Oval-5-Copy" cx="4" cy="24" r="3.5"></circle>
                            <circle id="Oval-5-Copy-2" cx="6" cy="52" r="3.5"></circle>
                            <circle id="Oval-5-Copy-5" cx="27" cy="4" r="3.5"></circle>
                            <circle id="Oval-5-Copy-4" cx="27" cy="24" r="3.5"></circle>
                            <circle id="Oval-5-Copy-3" cx="29" cy="52" r="3.5"></circle>
                            <circle id="Oval-5-Copy-8" cx="51" cy="4" r="3.5"></circle>
                            <circle id="Oval-5-Copy-7" cx="59" cy="29" r="3.5"></circle>
                            <circle id="Oval-5-Copy-6" cx="59" cy="54" r="3.5"></circle>
                        </g>
                    </g>
                    <g id="Group-39" transform="translate(0.000000, 61.000000)">
                        <path d="M8,8.5 C4.41014913,8.5 1.5,11.4101491 1.5,15 L1.5,73 C1.5,74.9329966 3.06700338,76.5 5,76.5 L49,76.5 C50.9329966,76.5 52.5,74.9329966 52.5,73 L52.5,15 C52.5,11.4101491 49.5898509,8.5 46,8.5 L8,8.5 Z" id="Rectangle-23-Copy-3" stroke="#252525" stroke-width="3" fill="#97B7F9"></path>
                        <path d="M18.5,8.5 L35.5,8.5 L35.5,4 C35.5,2.61928813 34.3807119,1.5 33,1.5 L21,1.5 C19.6192881,1.5 18.5,2.61928813 18.5,4 L18.5,8.5 Z" id="Rectangle-32" stroke="#252525" stroke-width="3"></path>
                        <path d="M13,20 L42.2706846,20 C43.3910042,20 44.4788646,20.3762507 45.3597924,21.0684083 L47.4712862,22.7274392 C48.4364478,23.4857804 49,24.6452687 49,25.8727125 L49,71 C49,73.209139 47.209139,75 45,75 L13,75 C10.790861,75 9,73.209139 9,71 L9,24 C9,21.790861 10.790861,20 13,20 Z" id="Rectangle-23-Copy-5" fill="#7DA0E9"></path>
                        <rect id="Rectangle-23-Copy-7" stroke="#252525" fill="#97B7F9" x="7.5" y="20.5" width="39" height="55" rx="4"></rect>
                        <path d="M8,24.5 C19.6213893,25.9272092 29.288056,31.5938758 37,41.5 C42.6252151,48.7256851 46,56 46,65 C46,66.2478717 45.9615704,68.6355993 45.8847112,72.1631829 L45.8846986,72.1631826 C45.8503469,73.7398112 44.562402,75 42.9853992,75 L11.2,75 C9.43268882,75 8,73.5673112 8,71.8 L8,24.5 Z" id="Rectangle-23-Copy-8" fill="#7DA0E9"></path>
                        <rect id="Rectangle-31" fill="#252525" x="21" y="27" width="12" height="8" rx="2"></rect>
                    </g>
                    <g id="Group-38" transform="translate(312.000000, 67.000000)">
                        <path d="M18.6126126,30 L16,15.5 L16,4 C16,1.790861 14.209139,-4.05812251e-16 12,0 L4,0 C1.790861,4.05812251e-16 -2.705415e-16,1.790861 0,4 L0,15.5 L9.25885113,66.8866238 C9.68787452,69.2677036 11.7601912,71 14.1796131,71 L67,71 C69.209139,71 71,69.209139 71,67 L71,34 C71,31.790861 69.209139,30 67,30 L18.6126126,30 Z" id="Combined-Shape" stroke="#252525" stroke-width="4" fill="#F76D5B"></path>
                        <path d="M25.4019438,70.5 L15.5,15.5 L15.5,4 C15.5,2.06700338 13.9329966,0.5 12,0.5 L4,0.5 C2.06700338,0.5 0.5,2.06700338 0.5,4 L0.492076196,15.4113376 L9.75092733,66.7979614 C10.1370484,68.9409332 12.0021334,70.5 14.1796131,70.5 L25.4019438,70.5 Z" id="Rectangle-27" stroke="#252525" fill="#F76D5B"></path>
                        <path d="M7.85592167,30.5 C7.63093004,30.5 7.40646259,30.5216947 7.18563542,30.5647829 C5.28841741,30.9349718 4.05051572,32.7730683 4.4207046,34.6702863 L10.859729,67.6702863 C11.1804252,69.3138546 12.6203826,70.5 14.2949461,70.5 L67,70.5 C68.9329966,70.5 70.5,68.9329966 70.5,67 L70.5,34 C70.5,32.0670034 68.9329966,30.5 67,30.5 L7.85592167,30.5 Z" id="Rectangle-28" stroke="#252525" fill="#F76D5B"></path>
                        <path d="M45,44.7287326 C37.1574657,40.0232121 25.6246107,36.4985941 10.4014351,34.1548787 L10.4014352,34.1548785 C9.309728,33.9868024 8.28847193,34.7355534 8.12039591,35.8272606 C8.08211668,36.0758964 8.09108848,36.329522 8.14684063,36.5748314 L14.6461914,65.1719749 C14.8531407,66.0825516 15.6626595,66.7287326 16.5964571,66.7287326 L66.0192929,66.7287121 C66.5715664,66.7287121 67.0192724,66.2810061 67.0192724,65.7287326 C67.0192724,65.51189 66.9487867,65.3009231 66.8184395,65.1276305 C60.1397592,56.2485329 52.866946,49.4489003 45,44.7287326 Z" id="Path-35" fill="#252525" fill-rule="nonzero" opacity="0.100000001"></path>
                    </g>
                    <g id="Group-37-Copy" transform="translate(394.000000, 94.000000)">
                        <path d="M49.6888889,16 L50,16 C51.1045695,16 52,15.1045695 52,14 L52,4 C52,1.790861 50.209139,-4.05812251e-16 48,0 L4,0 C1.790861,4.05812251e-16 -2.705415e-16,1.790861 0,4 L0,14 C1.3527075e-16,15.1045695 0.8954305,16 2,16 L2.31111111,16 L2.31111111,40 C2.31111111,42.209139 4.10197211,44 6.31111111,44 L45.6888889,44 C47.8980279,44 49.6888889,42.209139 49.6888889,40 L49.6888889,16 Z" id="Combined-Shape" stroke="#252525" stroke-width="4" fill="#DFC16D"></path>
                        <path d="M2.81111111,13.5 L2.81111111,40 C2.81111111,41.9329966 4.37811449,43.5 6.31111111,43.5 L45.6888889,43.5 C47.6218855,43.5 49.1888889,41.9329966 49.1888889,40 L49.1888889,13.5 L2.81111111,13.5 Z" id="Rectangle-29-Copy" stroke="#252525" fill="#DFC16D"></path>
                        <path d="M4,0.5 C2.06700338,0.5 0.5,2.06700338 0.5,4 L0.5,14 C0.5,14.8284271 1.17157288,15.5 2,15.5 L50,15.5 C50.8284271,15.5 51.5,14.8284271 51.5,14 L51.5,4 C51.5,2.06700338 49.9329966,0.5 48,0.5 L4,0.5 Z" id="Rectangle-29" stroke="#252525" fill="#DFC16D"></path>
                        <rect id="Rectangle-30" fill="#252525" x="18.4888889" y="19.4634146" width="16.1777778" height="4.09756098" rx="2"></rect>
                        <path d="M32,0 L4,0 C1.790861,4.05812251e-16 -2.705415e-16,1.790861 0,4 L0,14 C1.3527075e-16,15.1045695 0.8954305,16 2,16 L2.31111111,16 L2.31111111,40 C2.31111111,42.209139 4.10197211,44 6.31111111,44 L17,44 L32,0 Z" id="Combined-Shape-Copy-3" fill="#000000" opacity="0.100000001"></path>
                    </g>
                    <g id="Group-35" transform="translate(221.000000, 17.000000)">
                        <path d="M26.6120387,81.5 C26.4937416,81.5 26.3755936,81.5083965 26.2584854,81.5251263 C24.8916503,81.7203884 23.9419029,82.9867184 24.137165,84.3535534 L28.9943079,118.353553 C29.1702539,119.585175 30.2250557,120.5 31.4691816,120.5 L59.5308184,120.5 C60.7749443,120.5 61.8297461,119.585175 62.0056921,118.353553 L66.862835,84.3535534 C66.8795647,84.2364452 66.8879613,84.1182972 66.8879613,84 C66.8879613,82.6192881 65.7686731,81.5 64.3879613,81.5 L26.6120387,81.5 Z" id="Rectangle-24" stroke="#252525" stroke-width="3" fill="#FFD757"></path>
                        <path d="M31.5541208,83 L39.3000031,83 L36.3000031,119 L26.1707904,119 C25.6185056,119 25.1707904,118.552285 25.1707904,118 C25.1707904,117.94763 25.1749043,117.895341 25.1830942,117.843615 L30.5664247,83.8436149 C30.6433523,83.3577557 31.0622093,83 31.5541208,83 Z" id="Rectangle-25-Copy" fill="#F3CB48" transform="translate(32.235397, 101.000000) scale(1, -1) translate(-32.235397, -101.000000) "></path>
                        <path d="M58.3833305,83 L66.1292127,83 L63.1292127,119 L53,119 C52.4477153,119 52,118.552285 52,118 C52,117.94763 52.0041139,117.895341 52.0123038,117.843615 L57.3956343,83.8436149 C57.472562,83.3577557 57.8914189,83 58.3833305,83 Z" id="Rectangle-25-Copy-2" fill="#FFE287" transform="translate(59.064606, 101.000000) scale(-1, -1) translate(-59.064606, -101.000000) "></path>
                        <path d="M65.5,94.5 L26.5,94.5" id="Line-8" stroke="#252525" stroke-linecap="square"></path>
                        <path d="M49.4119236,81 L54.2140711,81 C52.5801131,70.8166153 53.5375932,60.4828733 57.079176,50.0191057 C60.3979552,40.2136218 65.8525158,30.5608095 73.4345969,21.0601947 C58.2978332,25.3512251 49.3752951,33.5998704 46.4592093,45.8474308 C43.2899894,59.1581544 44.2831251,70.8553041 49.4119236,81 Z" id="Path-4" stroke="#252525" stroke-width="3" fill="#7AC28B"></path>
                        <path d="M36.6687159,81.5 C38.8665341,81.5 39.5981789,81.5 42.1996502,81.5 C46.1058287,53.824623 44.5292917,37.0195257 36.1831566,21.7182782 C30.9537124,12.1309637 20.4616823,5.79716032 4.59091966,2.77533642 C13.2616034,11.3711853 21.0044186,22.045343 27.822677,34.7925216 C35.3885481,48.9374112 38.3364425,64.5192147 36.6687126,81.5 Z" id="Path-5" stroke="#252525" stroke-width="3" fill="#7AC28B"></path>
                    </g>
                    <g id="Group-37" transform="translate(397.000000, 51.000000)">
                        <path d="M43,16 L43,38 C43,40.209139 41.209139,42 39,42 L6,42 C3.790861,42 2,40.209139 2,38 L2,16 C0.8954305,16 1.3527075e-16,15.1045695 0,14 L0,4 C-2.705415e-16,1.790861 1.790861,4.05812251e-16 4,0 L41,0 C43.209139,-4.05812251e-16 45,1.790861 45,4 L45,14 C45,15.1045695 44.1045695,16 43,16 Z" id="Combined-Shape" stroke="#252525" stroke-width="4" fill="#DFC16D"></path>
                        <path d="M2.5,13.5 L2.5,38 C2.5,39.9329966 4.06700338,41.5 6,41.5 L39,41.5 C40.9329966,41.5 42.5,39.9329966 42.5,38 L42.5,13.5 L2.5,13.5 Z" id="Rectangle-29-Copy" stroke="#252525" fill="#DFC16D"></path>
                        <path d="M4,0.5 C2.06700338,0.5 0.5,2.06700338 0.5,4 L0.5,14 C0.5,14.8284271 1.17157288,15.5 2,15.5 L43,15.5 C43.8284271,15.5 44.5,14.8284271 44.5,14 L44.5,4 C44.5,2.06700338 42.9329966,0.5 41,0.5 L4,0.5 Z" id="Rectangle-29" stroke="#252525" fill="#DFC16D"></path>
                        <rect id="Rectangle-30" fill="#252525" x="16" y="19.4634146" width="14" height="4.09756098" rx="2"></rect>
                        <path d="M17.5,42 L6,42 C3.790861,42 2,40.209139 2,38 L2,16 C0.8954305,16 1.3527075e-16,15.1045695 0,14 L0,4 C-2.705415e-16,1.790861 1.790861,4.05812251e-16 4,0 L30,0 L17.5,42 Z" id="Combined-Shape-Copy-2" fill="#000000" opacity="0.100000001"></path>
                    </g>
                    <g id="Group-40" transform="translate(95.000000, 73.000000)" stroke="#252525">
                        <path d="M43.5842927,33.5 C47.0562199,31.488045 48.6697656,28.2513991 48.4860856,23.5586672 C48.3040629,18.9082792 46.734004,15.9665118 43.7705527,14.4916951 C39.2226569,15.2839919 34.6739059,15.7818007 30.124669,15.9849925 C25.4370597,16.1943647 19.0728631,15.3927778 10.9998553,13.5907554 C4.40785473,17.382813 1.33701132,21.0184675 1.50684813,24.3562053 C1.68373175,27.8324312 3.98609282,30.8706866 8.61127894,33.5 L43.5842927,33.5 Z" id="Path-6" stroke-width="3" fill="#FF998F"></path>
                        <path d="M42.7010874,34.5 C46.0766376,32.7997664 47.6587151,30.0019218 47.4875084,26.0214862 C47.3165739,22.0473763 45.7476134,19.4857025 42.7602706,18.2456852 C38.7970291,18.8844705 34.8335589,19.2844305 30.8699609,19.4455334 C26.8651034,19.6083134 21.3545039,18.9672011 14.3279574,17.525222 C8.24610525,20.6596235 5.34127344,23.7419481 5.50677636,26.7018155 C5.6751674,29.7133344 7.87584847,32.3132498 12.1882395,34.5 L42.7010874,34.5 Z" id="Path-6-Copy" fill="#FF998F"></path>
                        <path d="M11,13.5 C11,4.92324189 15.125,0.433803697 23.375,0.0316854152 C35.75,-0.571492007 40.1442308,9.0714032 43,14.5" id="Path-7" stroke-width="3"></path>
                        <path d="M11,14 C11,8.26045655 15.125,5.26695612 23.375,5.01949872 C35.75,4.64831261 40.6442308,11.159325 43.5,14.5" id="Path-7-Copy" stroke-width="3"></path>
                        <path d="M42.7003874,17.6315496 C43.7989669,24.5438499 41.8764529,28 36.9328455,28 C29.5174344,28 15.2359019,28 14.4119673,24.4130435 C13.8626776,22.0217391 13.8626776,19.5507246 14.4119673,17" id="Path-8"></path>
                    </g>
                </g>
            </g>
        </g>
    </g>
</svg>