<?xml version="1.0" encoding="UTF-8"?>
<svg width="37px" height="46px" viewBox="0 0 37 46" version="1.1" xmlns="http://www.w3.org/2000/svg" xmlns:xlink="http://www.w3.org/1999/xlink">
    <!-- Generator: sketchtool 50.2 (55047) - http://www.bohemiancoding.com/sketch -->
    <title>A616D8B4-4C19-4A25-AC4F-0D019B1357BD</title>
    <desc>Created with sketchtool.</desc>
    <defs></defs>
    <g id="frontend" stroke="none" stroke-width="1" fill="none" fill-rule="evenodd">
        <g id="pereezdy-desktop" transform="translate(-55.000000, -562.000000)">
            <g id="Group-9-Copy" transform="translate(25.000000, 543.000000)">
                <g id="Group-11-Copy-3">
                    <g id="icon_calc-2-copy-3" transform="translate(30.000000, 19.000000)">
                        <path d="M4,1 C2.34314575,1 1,2.34314575 1,4 L1,40.779265 C1,41.7823245 1.50130341,42.7190185 2.33589941,43.2754158 L3.98700196,44.3761509 C4.47980451,44.7046859 5.05882759,44.88 5.65110255,44.88 L31,44.88 C33.7614237,44.88 36,42.6414237 36,39.88 L36,5.65110255 C36,5.05882759 35.8246859,4.47980451 35.4961509,3.98700196 L34.3954158,2.33589941 C33.8390185,1.50130341 32.9023245,1 31.899265,1 L4,1 Z" id="Rectangle" stroke="#5070B2" stroke-width="2" fill="#FFFFFF"></path>
                        <rect id="Rectangle-Copy-6" stroke="#5070B2" fill="#FFFFFF" x="1.24" y="1.24" width="32.3" height="41.18" rx="3"></rect>
                        <path d="M5.7,4.2 C4.87157288,4.2 4.2,4.87157288 4.2,5.7 L4.2,11.32 C4.2,12.1484271 4.87157288,12.82 5.7,12.82 L29.08,12.82 C29.9084271,12.82 30.58,12.1484271 30.58,11.32 L30.58,5.7 C30.58,4.87157288 29.9084271,4.2 29.08,4.2 L5.7,4.2 Z M4.7,16.04 C4.42385763,16.04 4.2,16.2638576 4.2,16.54 L4.2,18.98 C4.2,19.2561424 4.42385763,19.48 4.7,19.48 L10.1,19.48 C10.3761424,19.48 10.6,19.2561424 10.6,18.98 L10.6,16.54 C10.6,16.2638576 10.3761424,16.04 10.1,16.04 L4.7,16.04 Z M14.69,16.04 C14.4138576,16.04 14.19,16.2638576 14.19,16.54 L14.19,18.98 C14.19,19.2561424 14.4138576,19.48 14.69,19.48 L20.09,19.48 C20.3661424,19.48 20.59,19.2561424 20.59,18.98 L20.59,16.54 C20.59,16.2638576 20.3661424,16.04 20.09,16.04 L14.69,16.04 Z M24.68,16.04 C24.4038576,16.04 24.18,16.2638576 24.18,16.54 L24.18,18.98 C24.18,19.2561424 24.4038576,19.48 24.68,19.48 L30.08,19.48 C30.3561424,19.48 30.58,19.2561424 30.58,18.98 L30.58,16.54 C30.58,16.2638576 30.3561424,16.04 30.08,16.04 L24.68,16.04 Z M4.7,22.7 C4.42385763,22.7 4.2,22.9238576 4.2,23.2 L4.2,25.64 C4.2,25.9161424 4.42385763,26.14 4.7,26.14 L10.1,26.14 C10.3761424,26.14 10.6,25.9161424 10.6,25.64 L10.6,23.2 C10.6,22.9238576 10.3761424,22.7 10.1,22.7 L4.7,22.7 Z M14.69,22.7 C14.4138576,22.7 14.19,22.9238576 14.19,23.2 L14.19,25.64 C14.19,25.9161424 14.4138576,26.14 14.69,26.14 L20.09,26.14 C20.3661424,26.14 20.59,25.9161424 20.59,25.64 L20.59,23.2 C20.59,22.9238576 20.3661424,22.7 20.09,22.7 L14.69,22.7 Z M24.68,22.7 C24.4038576,22.7 24.18,22.9238576 24.18,23.2 L24.18,25.64 C24.18,25.9161424 24.4038576,26.14 24.68,26.14 L30.08,26.14 C30.3561424,26.14 30.58,25.9161424 30.58,25.64 L30.58,23.2 C30.58,22.9238576 30.3561424,22.7 30.08,22.7 L24.68,22.7 Z M4.7,29.36 C4.42385763,29.36 4.2,29.5838576 4.2,29.86 L4.2,32.3 C4.2,32.5761424 4.42385763,32.8 4.7,32.8 L10.1,32.8 C10.3761424,32.8 10.6,32.5761424 10.6,32.3 L10.6,29.86 C10.6,29.5838576 10.3761424,29.36 10.1,29.36 L4.7,29.36 Z M14.69,29.36 C14.4138576,29.36 14.19,29.5838576 14.19,29.86 L14.19,32.3 C14.19,32.5761424 14.4138576,32.8 14.69,32.8 L20.09,32.8 C20.3661424,32.8 20.59,32.5761424 20.59,32.3 L20.59,29.86 C20.59,29.5838576 20.3661424,29.36 20.09,29.36 L14.69,29.36 Z M4.7,36.02 C4.42385763,36.02 4.2,36.2438576 4.2,36.52 L4.2,38.96 C4.2,39.2361424 4.42385763,39.46 4.7,39.46 L10.1,39.46 C10.3761424,39.46 10.6,39.2361424 10.6,38.96 L10.6,36.52 C10.6,36.2438576 10.3761424,36.02 10.1,36.02 L4.7,36.02 Z M14.69,36.02 C14.4138576,36.02 14.19,36.2438576 14.19,36.52 L14.19,38.96 C14.19,39.2361424 14.4138576,39.46 14.69,39.46 L20.09,39.46 C20.3661424,39.46 20.59,39.2361424 20.59,38.96 L20.59,36.52 C20.59,36.2438576 20.3661424,36.02 20.09,36.02 L14.69,36.02 Z M24.68,29.36 C24.4038576,29.36 24.18,29.5838576 24.18,29.86 L24.18,38.96 C24.18,39.2361424 24.4038576,39.46 24.68,39.46 L30.08,39.46 C30.3561424,39.46 30.58,39.2361424 30.58,38.96 L30.58,29.86 C30.58,29.5838576 30.3561424,29.36 30.08,29.36 L24.68,29.36 Z" id="Combined-Shape" stroke="#5070B2" fill="#FFFFFF"></path>
                        <path d="M25.16,32.56 L29.6,32.56 L29.6,34.04 L25.16,34.04 L25.16,32.56 Z M25.16,34.78 L29.6,34.78 L29.6,36.26 L25.16,36.26 L25.16,34.78 Z" id="Combined-Shape" fill="#F7B700"></path>
                    </g>
                </g>
            </g>
        </g>
    </g>
</svg>