<?xml version="1.0" encoding="UTF-8"?>
<svg width="106px" height="114px" viewBox="0 0 106 114" version="1.1" xmlns="http://www.w3.org/2000/svg" xmlns:xlink="http://www.w3.org/1999/xlink">
    <!-- Generator: sketchtool 50.2 (55047) - http://www.bohemiancoding.com/sketch -->
    <title>8EDBDD14-A29C-4769-A96A-DA601106BC83</title>
    <desc>Created with sketchtool.</desc>
    <defs></defs>
    <g id="frontend" stroke="none" stroke-width="1" fill="none" fill-rule="evenodd">
        <g id="pereezdy-desktop" transform="translate(-953.000000, -1992.000000)">
            <g id="Group-25" transform="translate(-96.000000, 1408.000000)">
                <g id="УТП" transform="translate(129.000000, 0.000000)">
                    <g id="надежные" transform="translate(780.000000, 531.000000)">
                        <g id="perevoz" transform="translate(101.000000, 48.000000)">
                            <g id="аватарка" transform="translate(42.000000, 8.000000)">
                                <path d="M35.5236892,62.6826807 C35.529191,62.6869432 35.5346398,62.6911517 35.5400349,62.695306 C35.530036,62.6876067 35.5228058,62.6819684 35.5175552,62.6778897 Z M75.6274649,56.6797691 C75.8646051,59.3985407 75.7584795,62.0268404 75.1877627,64.4240833 C87.1167897,66.3842257 94.6651981,70.9571237 97.6410627,78.2434037 L97.6843448,78.363811 C99.1932497,83.2002349 100.140926,89.3452641 100.54049,96.8893011 C100.54049,102.94452 85.8475408,107.460569 65.7917919,108.528913 C43.4742249,109.717741 19.4877176,106.378765 0.00143496943,98.2742899 L-0.747653808,97.9627388 L-0.896929212,97.1652961 C-3.32374815,84.2010095 7.94350326,71.4553396 30.977803,66.1717521 C31.4380699,65.5154621 32.1061718,64.9752784 32.9671825,64.5248902 C31.3076476,63.0775563 28.9381958,60.1605417 27.5458188,57.0118204 C24.6551575,50.474879 25.1306049,42.8591983 30.1499748,34.3868787 C29.8597794,32.0091125 29.7369557,27.9069372 30.0474861,24.1004591 C30.5652202,17.7540816 32.1392291,12.5653096 35.1407401,9.23300516 C42.1718263,1.42720349 56.418231,-3.45978065 61.2929829,0.586710542 C65.13528,3.77693077 68.2968683,8.30536398 71.0315878,14.5281295 C80.7138578,13.156065 87.1870837,14.897414 87.1870837,21.1519278 C87.1870837,25.7840459 84.2468089,28.3531037 79.6951104,29.1805844 C77.9190483,29.5034654 76.0667657,29.5389986 74.3133704,29.3971895 C74.2423069,29.7303945 74.1580796,30.1333192 74.0592587,30.6124846 L73.719678,32.047302 C73.7100272,32.1530093 73.697565,32.3111111 73.6848475,32.5144331 C73.6246077,33.4775151 73.6168314,34.5517438 73.6860097,35.5449698 C73.7086598,35.716009 73.7474986,36.0271654 73.7971236,36.4551785 C73.8794705,37.1654152 73.9617438,37.9456791 74.0385328,38.772856 C74.1936183,40.4434503 74.3064169,42.0886408 74.3588766,43.6342426 C74.4013995,44.8870766 74.4029812,46.0311998 74.3575257,47.0519086 C74.5840735,46.9483872 74.7829134,46.8317269 74.9564154,46.7044142 C75.2974092,46.4541988 75.4394621,46.2560593 75.4541853,46.2186906 L77.9306395,39.9332674 L78.3469188,46.6761215 C78.5830859,50.5015328 77.719436,54.2197694 75.6274649,56.6797691 Z" id="Combined-Shape" stroke="#5070B2" stroke-width="3" fill="#FFFFFF" stroke-linejoin="round"></path>
                                <path d="M47.8852845,59.599815 L43.1322724,46.415585 L44.6600825,26.8086304 L69.5271615,22.0756288 L73.3608625,25.6506056 L72.5995825,30.2670205 L72.2367932,31.7999003 C72.2367932,31.7999003 72.0441106,33.600459 72.1989917,35.74189 C72.1989917,35.74189 73.6013219,46.3314125 72.4132002,50.2190299 C71.2245534,54.1066473 68.0844047,62.642571 68.0844047,62.642571 L47.8852845,59.599815 Z" id="Fill-1" stroke="#5070B2" fill="#FFFFFF"></path>
                                <path d="M73.1665442,27.7599152 C73.1665442,27.7599152 85.6870837,29.8155339 85.6870837,21.1519278 C85.6870837,12.4883217 68.0711707,15.7923153 59.4088262,18.9494414 C50.7464818,22.1065674 36.9390043,29.2639878 31.6864956,34.7160528 C39.5364506,31.5779456 60.6460047,22.8409057 73.1665442,27.7599152" id="Fill-5" stroke="#5070B2" fill="#EDECEC"></path>
                                <path d="M0.577461089,96.8893011 C-1.62364984,85.1307672 9.23516408,67.6399479 49.4421237,65.1412594 C76.2467635,63.4754671 91.8501943,68.031899 96.2524161,78.8105552 C97.7198234,83.5139687 98.6491814,89.5402174 99.04049,96.8893011 C99.04049,106.296128 42.9855317,114.527102 0.577461089,96.8893011 Z" id="Path-41" stroke="#5070B2" fill="#F7F7F7"></path>
                                <path d="M51.7899754,63.3774793 C40.0507171,63.965406 30.9527919,64.5533327 31.8332363,68.962783 C32.7136807,73.3722332 34.0343472,81.1622619 55.3117529,81.3092436 C76.5891585,81.4562253 73.067381,70.8735447 71.8934552,68.962783 C70.7195294,67.0520212 63.5292337,62.7895526 51.7899754,63.3774793 Z" id="Path-52" stroke="#5070B2" fill="#EDECEC"></path>
                                <path d="M40.1647596,48.3913111 C39.8939529,48.3777393 39.7567233,48.3328478 39.5198326,48.2383669 C37.9247343,50.4824196 34.7340158,55.6668653 34.6213101,61.3623432 C34.6270498,61.9532406 34.6494865,62.5138623 34.6907076,63.0316805 C34.7157533,63.3046834 34.7366247,63.5776863 34.7778458,63.8517332 C35.4086845,68.3956921 35.4262636,74.1253102 42.7941169,76.6868531 C50.1619703,79.248396 60.1323252,79.1278635 66.9664462,76.2782976 C69.4591821,75.2389225 69.847051,73.3885659 69.3670083,70.721176 C67.5501511,71.9833578 65.0909759,72.7736569 61.7677239,72.7736569 C45.2391238,72.7736569 36.8978604,67.4127772 40.1647596,48.3913111 Z" id="Fill-7" stroke="#5070B2" fill="#FFFFFF"></path>
                                <path d="M70.1325664,16.2384998 C67.3573867,9.59563658 64.1768964,4.93083762 60.3347807,1.74076799 C56.345232,-1.57092337 42.9715436,2.78060749 36.2552649,10.2369148 C29.8895955,17.3041379 31.4644722,33.499309 31.838004,34.7160528 C37.0627604,29.2825624 50.7959145,22.1495267 59.411631,19.0031566 C62.3118423,17.9438366 66.2216834,16.870301 70.1325664,16.2384998" id="Fill-12" stroke="#5070B2" fill="#FFFFFF"></path>
                                <path d="M57.393991,49.0580745 C57.24493,48.0099046 57.6973292,47.0131427 58.5648779,46.1035488 C58.8357196,45.819581 59.1271036,45.566414 59.4181777,45.3483715 C59.519609,45.2723897 59.613376,45.2064678 59.6968644,45.1510681 C59.7452716,45.1189469 59.7782831,45.0981712 59.79329,45.0891759 C60.001915,44.9641236 60.0698302,44.6933471 59.9449829,44.4843795 C59.8201357,44.275412 59.549803,44.2073852 59.341178,44.3324375 C59.2463006,44.3893081 59.089408,44.4934161 58.8908737,44.6421374 C58.5628853,44.8878321 58.2352069,45.1725333 57.9282569,45.4943594 C56.892093,46.5807403 56.3288398,47.8217445 56.5223452,49.1824393 C56.5566313,49.4235329 56.7795502,49.5911378 57.0202485,49.5567954 C57.2609469,49.522453 57.4282771,49.2991681 57.393991,49.0580745 Z" id="Stroke-18" fill="#5173B3" fill-rule="nonzero"></path>
                                <path d="M63.2306871,32.5916128 C63.193912,32.3508875 62.9692734,32.1856022 62.7289427,32.2224378 C62.4886121,32.2592733 62.3235978,32.4842807 62.3603729,32.725006 L64.0979833,44.0991766 L64.1517576,44.1802558 C64.1639455,44.1986324 64.1883825,44.2363647 64.2233093,44.291743 C64.2824411,44.3854994 64.3485739,44.4935219 64.4199464,44.6140886 C64.6243252,44.9593377 64.8288322,45.3344965 65.0193556,45.7254975 C65.2981985,46.2977517 65.522151,46.8534319 65.6712058,47.3703465 C65.7728532,47.7228547 65.837264,48.049813 65.8610018,48.3454502 C66.010243,50.2041403 65.1267378,51.5610641 62.9123346,52.5382614 C62.6898425,52.6364453 62.5889403,52.8967006 62.6869632,53.1195581 C62.7849861,53.3424155 63.0448149,53.4434834 63.2673069,53.3452995 C65.8124956,52.2221294 66.9190976,50.5225642 66.7386124,48.274752 C66.7097689,47.9155267 66.6341319,47.5315824 66.5170749,47.1256345 C66.3524139,46.5545983 66.1100961,45.9533497 65.8105882,45.3386856 C65.6088794,44.9247294 65.3931375,44.5289607 65.1772675,44.1643 C65.1015529,44.0363983 65.0311048,43.9213272 64.967664,43.8207387 C64.9574662,43.8045694 64.9480021,43.789645 64.939304,43.775996 L63.2306871,32.5916128 Z" id="Stroke-20" fill="#5173B3" fill-rule="nonzero"></path>
                                <path d="M64.0085931,30.8798939 C64.0653742,30.8566879 64.1848547,30.8114072 64.3587502,30.7513282 C64.6551464,30.6489265 64.9898212,30.5460299 65.3543226,30.4498472 C66.6656519,30.1038204 67.9917286,29.9371947 69.2032855,30.044328 C70.2899342,30.1404162 71.2153907,30.4539363 71.9492878,31.0099542 C72.3371014,31.303771 72.8892816,31.2270554 73.1826167,30.838605 C73.4759519,30.4501546 73.399362,29.8970678 73.0115484,29.603251 C71.9911327,28.8301597 70.7530408,28.4107271 69.3581366,28.2873811 C67.915782,28.1598392 66.397533,28.3506119 64.9057354,28.7442598 C64.2031046,28.9296664 63.661715,29.1167107 63.3433557,29.2468217 C62.8931345,29.4308235 62.6770766,29.9455622 62.8607768,30.3965226 C63.044477,30.8474831 63.5583719,31.0638958 64.0085931,30.8798939 Z" id="Path" fill="#5173B3" fill-rule="nonzero"></path>
                                <path d="M62.9609579,53.2357438 C62.9067495,54.2294899 62.4674031,57.1708295 59.2737525,58.5369644 C59.7957022,59.3232367 61.3501933,59.1604496 63.8272601,58.9019054 C66.9047498,58.5811191 67.2475536,58.0358355 67.4912333,56.9899549 C63.9449699,56.5952228 63.138555,54.1427765 62.9609579,53.2357438" id="Fill-24" fill="#F7F7F7"></path>
                                <path d="M68.4862354,57.096995 C68.1589754,57.0451154 68.0196935,56.9811829 67.6830084,57.0435432 C67.4039211,58.2697891 66.6211152,58.6581003 63.9669056,58.9269312 C61.4572141,59.181613 59.8821772,59.3414442 59.3507069,58.5700622 C57.9186171,59.1653679 55.9398723,59.4572563 53.2024078,59.1423103 C42.957337,57.9637517 43.2432432,50.85 43.6642186,47.5925412 C43.6642186,47.5925412 44.4119423,48.4933603 45.7304074,49.4528715 C43.9543019,42.2803811 45.3822027,33.0112198 46.0623799,29.4247125 C39.8511421,31.0211904 34.9119771,33.3303581 31.7933201,34.5670848 C20.1585725,53.4806177 34.7140502,63.9744528 34.7140502,63.9744528 C39.226573,66.0795082 38.7387387,48.15 39.6396396,48.15 C36.0057406,67.1964665 45.2125511,72.9312882 61.7991354,72.9312882 C74.5277169,72.9312882 74.7162186,61.4433554 74.0187621,55.7140621 C73.2181532,56.2606324 72.2520817,56.6725253 71.0718512,56.8779476 C70.0963546,57.0477355 69.2397188,57.112192 68.4862354,57.096995 Z" id="Fill-28" stroke="#5070B2" fill="#EDECEC" stroke-linejoin="round"></path>
                                <path d="M62.79553,55.5868543 C62.79553,55.5868543 62.27616,62.3486076 54.4856099,62.3486076 C49.2922282,62.3486076 45.6563198,59.2277984 44.0982098,54.0264497 C42.5400997,48.825101 62.79553,55.5868543 62.79553,55.5868543 Z" id="Path-17" fill="#000000" opacity="0.100000001"></path>
                                <path d="M73.6852158,55.1578119 C73.6852158,55.1578119 74.2760874,58.223406 73.6852158,59.3185239 C73.2090497,60.2010471 71.6109899,60.8787909 70.573877,60.8787909 C67.3851189,60.8787909 64.3511994,59.3185239 62.79553,54.1176338 C66.4254253,56.1979899 73.6852158,55.1578119 73.6852158,55.1578119 Z" id="Path-17-Copy" fill="#000000" opacity="0.100000001"></path>
                                <path d="M51.8455154,51.4406645 C57.1221348,51.5742213 57.3676859,49.8391698 63.3809585,52.9091959 C63.3809585,52.9091959 63.7492851,61.1861572 53.072725,59.8511826 C46.2843165,59.0023743 42.9562711,54.9964019 43.0885887,47.8332654 L43.0885497,47.8332647 C43.0926302,47.6123669 43.275011,47.4366017 43.4959088,47.4406821 C43.6087388,47.4427663 43.7154402,47.4924093 43.7897102,47.5773736 C45.9704932,50.0721731 48.6557616,51.3599368 51.8455154,51.4406645 Z" id="Fill-14" stroke="#5070B2" fill="#F7F7F7"></path>
                                <path d="M70.4274876,49.016699 C65.8991223,48.6746014 65.614484,52.6213151 63.5135135,53.1 C63.5135135,53.1 62.6732585,59.5257093 70.5394967,57.9966599 C75.8204584,56.9701402 77.1169909,51.0969819 76.8497692,46.7685501 C76.8497692,46.7685501 75.8039691,49.422868 70.4274876,49.016699 Z" id="Fill-16" stroke="#5070B2" fill="#F7F7F7" stroke-linejoin="round"></path>
                                <path d="M58.3911846,34.3649462 C58.4298317,35.1759801 57.9363374,35.8591934 57.2892454,35.8907726 C56.6421535,35.9223518 56.0862292,35.2902667 56.047582,34.4792328 C56.0089349,33.6681989 56.5019337,32.9849855 57.1495212,32.9534063 C57.7966131,32.9218271 58.3525374,33.5539123 58.3911846,34.3649462" id="Fill-31" fill="#5173B3"></path>
                                <path d="M68.6630356,33.1890928 C68.7016827,34.0001267 68.2081884,34.68334 67.5610964,34.7149192 C66.9140045,34.7464984 66.3580802,34.1144133 66.319433,33.3033794 C66.2807859,32.4923455 66.7737847,31.8091321 67.4213722,31.7775529 C68.0684641,31.7459737 68.6243884,32.3780589 68.6630356,33.1890928" id="Fill-33" fill="#5173B3"></path>
                                <path d="M58.1766657,19.4299587 C58.652985,19.2476034 59.1203667,19.0725633 59.5714505,18.9111083 C61.3552819,18.2699911 63.5207995,17.6246938 65.8314211,17.075538 C66.2546407,15.1845818 65.9896684,12.8087383 64.9371396,10.4924606 C63.0034727,6.23663357 59.1645287,3.8059267 56.3618158,5.06308077 C53.5596285,6.32075734 52.8551387,10.7902901 54.7888056,15.0466397 C55.6352449,16.9093804 56.8465468,18.4225634 58.1766657,19.4299587" id="Fill-37" stroke="#5070B2" fill="#F7F7F7"></path>
                                <path d="M60.9695118,29.9616657 C60.8913171,29.9040298 60.7610432,29.8180525 60.5807611,29.7136357 C60.2938932,29.5474858 59.9616104,29.3831885 59.5859888,29.2308856 C56.7739855,28.0907055 53.39258,28.2178379 49.7214884,30.4330936 C49.3049769,30.6844301 49.1707422,31.2263823 49.4216667,31.6435777 C49.6725912,32.060773 50.2136549,32.1952282 50.6301664,31.9438917 C53.8018842,30.0299742 56.6040619,29.9246193 58.9252566,30.8657918 C59.2225259,30.9863253 59.481455,31.1143528 59.6993037,31.2405277 C59.8218515,31.3115058 59.8982803,31.3619467 59.9258449,31.3822641 C60.3174893,31.6709379 60.8686125,31.5869426 61.1568132,31.1946551 C61.4450138,30.8023677 61.3611561,30.2503395 60.9695118,29.9616657 Z" id="Stroke-39" fill="#5173B3" fill-rule="nonzero"></path>
                                <path d="M44.4692999,25.8212045 C42.1222741,14.6094851 43.8386082,7.51781729 46.067087,3.26197449 C42.4170821,4.95199566 38.83519,7.3651838 36.2458703,10.2452199 C29.8921582,17.3100452 31.464468,33.4997218 31.8372676,34.7160528 C34.4713024,31.9723342 39.2729826,28.7954523 44.4880179,25.9175215 C44.4812587,25.8848895 44.4760592,25.8538365 44.4692999,25.8212045" id="Fill-41" stroke="#5070B2" fill="#F7F7F7"></path>
                                <path d="M52.8552942,34.3571449 C52.9087235,34.3353856 53.0214475,34.2927542 53.1854042,34.2361343 C53.4650157,34.1395747 53.7801768,34.0425412 54.1226471,33.9518517 C55.2890247,33.6429835 56.4639107,33.4853903 57.5358366,33.5570292 C58.0638113,33.5923148 58.5507532,33.6832542 58.9897014,33.8331146 C59.4499562,33.9902493 59.9502404,33.7439093 60.1071175,33.2828987 C60.2639947,32.8218882 60.0180584,32.3207825 59.5578037,32.1636478 C58.9650662,31.9612825 58.3276893,31.8422485 57.6530667,31.7971621 C56.3641585,31.7110218 55.008713,31.8928344 53.6725741,32.2466571 C53.0087818,32.4224358 52.4953088,32.5997559 52.1920638,32.7232539 C51.7416169,32.9067007 51.5249267,33.4211726 51.7080727,33.8723591 C51.8912187,34.3235457 52.4048473,34.5405917 52.8552942,34.3571449 Z" id="Stroke-43" fill="#5173B3" fill-rule="nonzero"></path>
                                <path d="M65.381355,33.6553784 C65.390041,33.6487913 65.4323648,33.6203677 65.5071886,33.5767696 C65.6477392,33.4948741 65.8188732,33.4107486 66.0195628,33.3308357 C67.193818,32.8632573 68.6744547,32.7751937 70.458384,33.3301609 C70.9227584,33.4746243 71.416127,33.2146671 71.5603536,32.7495302 C71.7045802,32.2843933 71.4450492,31.7902146 70.9806748,31.6457512 C68.7991726,30.967102 66.9063563,31.0796807 65.3690585,31.6918197 C65.0852741,31.8048202 64.8359384,31.9273878 64.6217588,32.0521852 C64.4837446,32.1326029 64.3824409,32.200636 64.3184454,32.2491671 C63.9307674,32.5431634 63.8544328,33.0962857 64.1479472,33.4846002 C64.4414616,33.8729147 64.9936771,33.9493747 65.381355,33.6553784 Z" id="Stroke-45" fill="#5173B3" fill-rule="nonzero"></path>
                            </g>
                        </g>
                    </g>
                </g>
            </g>
        </g>
    </g>
</svg>