<?xml version="1.0" encoding="UTF-8"?>
<svg width="159px" height="131px" viewBox="0 0 159 131" version="1.1" xmlns="http://www.w3.org/2000/svg" xmlns:xlink="http://www.w3.org/1999/xlink">
    <!-- Generator: sketchtool 50.2 (55047) - http://www.bohemiancoding.com/sketch -->
    <title>33E5A5BA-0D67-41B7-813D-41716F3C4BBE</title>
    <desc>Created with sketchtool.</desc>
    <defs>
        <linearGradient x1="14.9071441%" y1="14.9071441%" x2="82.7697799%" y2="82.7697799%" id="linearGradient-1">
            <stop stop-color="#D2F7FD" offset="0%"></stop>
            <stop stop-color="#F9E1FE" offset="100%"></stop>
        </linearGradient>
    </defs>
    <g id="frontend" stroke="none" stroke-width="1" fill="none" fill-rule="evenodd">
        <g id="pereezdy-desktop" transform="translate(-141.000000, -1973.000000)">
            <g id="Group-25" transform="translate(-96.000000, 1408.000000)">
                <g id="УТП" transform="translate(129.000000, 0.000000)">
                    <g id="отслеживание" transform="translate(0.000000, 531.000000)">
                        <g id="otslegivanie" transform="translate(108.000000, 34.000000)">
                            <path d="M143.492789,15.7794181 C166.726916,39.0135452 162.437762,80.9726624 133.912695,109.497729 C109.13964,134.270784 68.5,133 50.2613147,126.824974 C32.0226293,120.649947 20.395522,113.725322 10.5562673,97.9792231 C-6.16624127,71.2176152 -2.05373972,38.4823706 19.7417966,24.863008 C30.0566091,18.4175978 42.4833375,17.4086403 54.4853283,20.9706368 C82.7558164,-3.54710624 121.50743,-6.20594167 143.492789,15.7794181 Z" id="Combined-Shape" fill="url(#linearGradient-1)"></path>
                            <g id="Group-112" transform="translate(5.000000, 10.000000)">
                                <path d="M99.4704642,51.6997681 C92.1500609,40.5883565 87.7863741,31.3661953 87.7863741,25.0672627 C87.7863741,10.3302521 99.3559582,-1.5 113.729792,-1.5 C128.02628,-1.5 139.67321,10.4871797 139.67321,25.0672627 C139.67321,32.7251575 133.09434,44.83585 122.914682,58.9824347 L127.809082,60.7731441 C129.305412,61.3206049 130.490793,62.4900641 131.058438,63.9788543 L147.968052,108.328574 C148.361568,109.360669 147.843898,110.516354 146.811804,110.90987 C146.312493,111.100247 145.757761,111.082891 145.271327,110.861673 L113.08037,96.2220151 C111.384938,95.450974 109.440202,95.4442757 107.739499,96.2036194 L77.0638437,109.899931 C74.5781999,111.009741 71.7358942,110.999951 69.2579544,109.873045 L39.2711011,96.2357597 C37.5614495,95.4582521 35.5990586,95.4582521 33.889407,96.2357597 L1.74867323,110.852577 C0.743197333,111.309843 -0.44258909,110.865431 -0.899854871,109.859955 C-1.12466383,109.365625 -1.13879404,108.801131 -0.938998874,108.296173 L16.6242547,63.9071773 C17.1959705,62.4622347 18.352244,61.3265673 19.8072323,60.7809238 L43.197886,52.0090603 C44.8958326,51.3723036 46.766985,51.3723036 48.4649315,52.0090603 L71.4488072,60.6283756 C72.450269,61.0039395 73.5527575,61.0105193 74.5586306,60.6469355 L98.606647,51.9545163 C98.890195,51.8520248 99.1786692,51.7670752 99.4704642,51.6997681 Z" id="Combined-Shape" stroke="#5070B2" stroke-width="3" fill="#FFFFFF"></path>
                                <path d="M73,62.4200439 L74.5,62.1999512 L99.7843001,53.0858556 C100.303861,52.8985723 100.876871,53.1679365 101.064155,53.6874973 C101.078732,53.7279375 101.090686,53.7692757 101.099944,53.8112544 L110,94.1700439 C108.852393,94.2576707 107.732393,94.5543423 106.639999,95.0600586 C96.9344581,99.5531739 86.727008,104.122236 76.0176491,108.767243 C75.3869605,109.040794 74.4370109,109.18503 73.1678005,109.199951 L73,62.4200439 Z" id="Path-83-Copy-2" fill="#F7F7F7"></path>
                                <path d="M0.454080996,108.853871 L18.046272,64.4500912 C18.4625212,63.3994523 19.3037696,62.5739121 20.3620669,62.1775379 L44.0723792,53.2970879 C44.5895778,53.1033766 45.1658842,53.3656148 45.3595955,53.8828134 C45.4275688,54.0642983 45.4413434,54.2616243 45.3992441,54.450793 L36.7148148,93.4733728 L1.12416162,109.493975 C0.872354183,109.607323 0.576337726,109.495079 0.462990358,109.243271 C0.407506922,109.120012 0.404292956,108.97954 0.454080996,108.853871 Z" id="Path-83-Copy" fill="#F7F7F7"></path>
                                <path d="M111.934203,67.780782 C96.6447344,48.7305418 89,34.6311118 89,25.4824922 C89,11.2988409 99.9666667,0 113.5,0 C127.033333,0 138,11.5392417 138,25.4824922 C138,34.4775155 130.352775,48.5750356 115.058324,67.7750526 L115.058338,67.7750635 C114.370113,68.6390322 113.111812,68.7815008 112.247843,68.0932761 C112.132054,68.0010398 112.026863,67.8962331 111.934203,67.780782 Z" id="check_start-copy-4" stroke="#5070B2" fill="#F3F9F3"></path>
                                <path d="M114.5,10.5 C119.958637,10.5 124.5,15.0833776 124.5,20.5 C124.5,26.0703101 120.036524,30.5 114.5,30.5 C109.041363,30.5 104.5,25.9166224 104.5,20.5 C104.5,14.9296899 108.963476,10.5 114.5,10.5 Z" id="Path" stroke="#5070B2" fill="#FFFFFF"></path>
                                <path d="M15,85.7778132 C34.9067422,96.9215246 35.2226329,74.1094015 53.4189695,72.0765876 C71.615306,70.0437737 63.9106563,92.7992412 74.0639017,96.8758288 C84.217147,100.952416 88.8466747,93.4033782 96.0625999,82.905339 C103.278525,72.4072998 110.277143,69.3588625 114,68" id="Path-84" stroke="#5070B2" stroke-width="2" stroke-linecap="round" stroke-dasharray="3,6"></path>
                            </g>
                        </g>
                    </g>
                </g>
            </g>
        </g>
    </g>
</svg>