<?xml version="1.0" encoding="UTF-8"?>
<svg width="153px" height="128px" viewBox="0 0 153 128" version="1.1" xmlns="http://www.w3.org/2000/svg" xmlns:xlink="http://www.w3.org/1999/xlink">
    <!-- Generator: sketchtool 50.2 (55047) - http://www.bohemiancoding.com/sketch -->
    <title>31CB8616-DF29-471C-80A2-D2C8A19346B5</title>
    <desc>Created with sketchtool.</desc>
    <defs>
        <linearGradient x1="12.1515014%" y1="13.0752247%" x2="82.7009714%" y2="84.5362874%" id="linearGradient-1">
            <stop stop-color="#F9E1FE" offset="0%"></stop>
            <stop stop-color="#FDF1D2" offset="100%"></stop>
        </linearGradient>
    </defs>
    <g id="frontend" stroke="none" stroke-width="1" fill="none" fill-rule="evenodd">
        <g id="pereezdy-desktop" transform="translate(-535.000000, -1978.000000)">
            <g id="Group-25" transform="translate(-96.000000, 1408.000000)">
                <g id="УТП" transform="translate(129.000000, 0.000000)">
                    <g id="оплата" transform="translate(390.000000, 531.000000)">
                        <g id="payCard" transform="translate(112.000000, 39.000000)">
                            <path d="M100.319563,124.5 C81.1391254,131.5 47.8943279,129.138558 23.8526431,105.096874 C-3.67417112,77.5700593 -7.81322366,37.079328 14.6078105,14.6582938 C35.7769394,-6.51083505 73.0542147,-4.00309979 100.319563,19.5114476 C111.73423,16.2618887 123.50947,17.3003936 133.309285,23.4239977 C154.342073,36.5667422 158.310654,68.1563961 142.173361,93.9814646 C132.921417,108.787669 119.5,117.5 100.319563,124.5 Z" id="Combined-Shape" fill="url(#linearGradient-1)"></path>
                            <g id="карты" transform="translate(22.000000, 9.000000)">
                                <path d="M71.7947734,5.5688355 C73.0251264,4.57357551 74.0308743,4.04570458 75.2687792,3.67050005 C76.9673448,3.15567091 78.7171136,3.15567091 80.4156792,3.67050005 C82.291714,4.23911946 83.695537,5.18851499 86.1546519,7.64762983 L117.909049,39.4020273 C120.368164,41.8611422 121.31756,43.2649651 121.886179,45.1409999 C122.401008,46.8395655 122.401008,48.5893343 121.886179,50.2878999 C121.31756,52.1639347 120.368164,53.5677577 117.909049,56.0268725 L64.1185912,109.817331 C61.6594763,112.276446 60.2556533,113.225841 58.3796185,113.79446 C56.681053,114.30929 54.9312841,114.30929 53.2327186,113.79446 C51.8247337,113.367705 50.7009955,112.735473 49.2052266,111.431164 C47.9748736,112.426424 46.9691257,112.954295 45.7312208,113.3295 C44.0326552,113.844329 42.2828864,113.844329 40.5843208,113.3295 C38.708286,112.760881 37.304463,111.811485 34.8453481,109.35237 L3.09095067,77.5979727 C0.631835829,75.1388578 -0.317559697,73.7350349 -0.886179113,71.8590001 C-1.40100825,70.1604345 -1.40100825,68.4106657 -0.886179113,66.7121001 C-0.317559697,64.8360653 0.631835829,63.4322423 3.09095067,60.9731275 L56.8814088,7.1826693 C59.3405237,4.72355446 60.7443467,3.77415893 62.6203815,3.20553951 C64.318947,2.69071038 66.0687159,2.69071038 67.7672814,3.20553951 C69.1752663,3.63229468 70.2990045,4.26452718 71.7947734,5.5688355 Z" id="Combined-Shape" stroke="#5070B2" stroke-width="3" fill="#FFFFFF"></path>
                                <g id="Group-105" transform="translate(46.500000, 51.000000) rotate(-45.000000) translate(-46.500000, -51.000000) translate(-2.000000, 41.000000)" fill="#F7F7F7">
                                    <polygon id="Rectangle-83" points="0.871710308 0.776887222 96.7735999 0.776887222 96.7735999 19.8677963 0.871710308 19.8677963"></polygon>
                                </g>
                                <g id="Group-104" transform="translate(66.500000, 58.500000) rotate(-45.000000) translate(-66.500000, -58.500000) translate(17.000000, 26.000000)">
                                    <rect id="Rectangle-82" stroke="#5070B2" fill="#FFFFFF" x="0.5" y="-0.5" width="98" height="66" rx="8"></rect>
                                    <path d="M0.509128444,11.2144735 L0.509128444,29.4398256 L98.40913,29.4398256 L98.40913,11.2144735 L0.509128444,11.2144735 Z" id="Rectangle-83" stroke="#5070B2" fill="#F7F7F7"></path>
                                    <rect id="Rectangle-84" fill="#5070B2" x="12.0857143" y="41.1971831" width="25.8666667" height="3.66197183" rx="1.83098592"></rect>
                                    <rect id="Rectangle-84-Copy-2" fill="#5070B2" x="43.4952381" y="41.1971831" width="12.0095238" height="3.66197183" rx="1.83098592"></rect>
                                    <g id="Group-103" transform="translate(66.590476, 41.197183)">
                                        <ellipse id="Oval-21" fill="#5173B3" cx="5.38888889" cy="5.49295775" rx="5.38888889" ry="5.49295775"></ellipse>
                                        <ellipse id="Oval-21-Copy" fill="#D4E4F3" cx="14.0111111" cy="5.49295775" rx="5.38888889" ry="5.49295775"></ellipse>
                                    </g>
                                    <rect id="Rectangle-84-Copy" fill="#5070B2" x="12.0857143" y="48.5211268" width="20.3238095" height="3.66197183" rx="1.83098592"></rect>
                                </g>
                            </g>
                        </g>
                    </g>
                </g>
            </g>
        </g>
    </g>
</svg>