<?xml version="1.0" encoding="UTF-8"?>
<svg width="146px" height="122px" viewBox="0 0 146 122" version="1.1" xmlns="http://www.w3.org/2000/svg" xmlns:xlink="http://www.w3.org/1999/xlink">
    <!-- Generator: sketchtool 50.2 (55047) - http://www.bohemiancoding.com/sketch -->
    <title>4951A584-BD23-4AE6-8CCA-C38069D1B973</title>
    <desc>Created with sketchtool.</desc>
    <defs>
        <linearGradient x1="83.5994098%" y1="83.5994098%" x2="14.6446609%" y2="14.6446609%" id="linearGradient-1">
            <stop stop-color="#DBEBFB" offset="0%"></stop>
            <stop stop-color="#D2FDEE" offset="100%"></stop>
        </linearGradient>
    </defs>
    <g id="frontend" stroke="none" stroke-width="1" fill="none" fill-rule="evenodd">
        <g id="pereezdy-desktop" transform="translate(-538.000000, -1594.000000)">
            <g id="Group-25" transform="translate(-96.000000, 1408.000000)">
                <g id="УТП" transform="translate(129.000000, 0.000000)">
                    <g id="гарантия" transform="translate(390.000000, 141.000000)">
                        <g id="prices" transform="translate(115.000000, 44.000000)">
                            <path d="M96.2740289,119.879016 C78.8793639,125.619691 46.1146525,124.317092 23.1120675,101.314507 C-3.225017,74.9774227 -7.18517656,36.2367314 14.2668035,14.7847513 C34.5209867,-5.46943179 70.1871099,-3.07008275 96.2740289,19.4281481 C107.195346,16.3190376 118.461651,17.3126575 127.83791,23.1715949 C147.961645,35.7463 151.758702,65.9706251 136.318874,90.6795146 C127.466806,104.845784 113.668694,114.13834 96.2740289,119.879016 Z" id="Combined-Shape" fill="url(#linearGradient-1)"></path>
                            <g id="shield-copy" transform="translate(72.000000, 65.000000) scale(-1, 1) translate(-72.000000, -65.000000) translate(21.000000, 8.000000)">
                                <path d="M51.0080567,1.81699598 C50.8853816,1.90021167 50.7560589,1.98744176 50.6201952,2.07855036 C49.6184555,2.75030518 48.4635217,3.497734 47.1702068,4.30194071 C43.4790872,6.59714596 39.4135379,8.89156486 35.0911416,11.03397 C25.8850663,15.5969812 16.7963662,18.8440553 8.25186178,20.1969352 C5.94084637,20.5628459 3.69015068,20.7849715 1.50505638,20.8554936 C1.81386932,65.6942379 16.2901187,93.7982245 51.0099453,112.308127 C85.7375365,94.3115304 100.190664,66.2462772 100.49508,20.8544228 C97.6992442,20.7602605 94.7802333,20.4074816 91.7505505,19.8139111 C83.9174072,18.2792544 75.5899707,15.2012652 67.1252138,11.0358741 C62.7735416,8.89447567 58.6630823,6.60120145 54.9180597,4.30723536 C53.6060066,3.50355389 52.4325841,2.75666249 51.4134379,2.08545592 C51.2712535,1.99181367 51.1360855,1.90227769 51.0080567,1.81699598 Z" id="Fill-3" stroke="#5070B2" stroke-width="3" fill="#F7F7F7"></path>
                                <path d="M13.5009849,29.0255201 C13.627268,60.7973311 25.8990632,86.2251047 51.0025181,99.3506621 C76.4554293,86.332342 88.3783402,61.3079993 88.4990735,29.025521 C86.3981152,28.9930337 84.2001288,28.7574643 81.9154739,28.3325344 C75.9844436,27.2294039 69.6617966,24.9009864 63.2367559,21.7125901 C60.0194837,20.1160338 56.9837614,18.4057982 54.2214043,16.6953225 C53.2541366,16.0963819 52.3898708,15.5400114 51.640123,15.0403896 C51.3985283,14.8793941 51.184781,14.734883 51,14.6082325 C50.815219,14.734883 50.6014717,14.8793941 50.359877,15.0403896 C49.6101292,15.5400114 48.7458634,16.0963819 47.7785957,16.6953225 C45.0162386,18.4057982 41.9805163,20.1160338 38.7632441,21.7125901 C32.3382034,24.9009864 26.0155564,27.2294039 20.0845261,28.3325344 C17.7998924,28.7574604 15.6019255,28.9930294 13.5009849,29.0255201 Z" id="Fill-5" stroke="#5070B2" fill="#FFFFFF"></path>
                                <path d="M58.5,73 L58.5,34.9967107 L46,34.9967107 C39,35.3322369 35.5,38.6666667 35.5,45 C35.5,51.3333333 39,54.5 46,54.5 L66.5060967,54.5" id="Path-16" stroke="#5173B3" stroke-width="4" stroke-linecap="round" stroke-linejoin="round"></path>
                                <path d="M66.5,65.5 L37.5,65.5" id="Line-50" stroke="#5173B3" stroke-width="4" stroke-linecap="round" stroke-linejoin="round"></path>
                            </g>
                        </g>
                    </g>
                </g>
            </g>
        </g>
    </g>
</svg>