<?xml version="1.0" encoding="UTF-8"?>
<svg width="499px" height="261px" viewBox="0 0 499 261" version="1.1" xmlns="http://www.w3.org/2000/svg" xmlns:xlink="http://www.w3.org/1999/xlink">
    <!-- Generator: Sketch 50.2 (55047) - http://www.bohemiancoding.com/sketch -->
    <title>мебель</title>
    <desc>Created with Sketch.</desc>
    <defs></defs>
    <g id="frontend" stroke="none" stroke-width="1" fill="none" fill-rule="evenodd">
        <g id="pereezdy-desktop" transform="translate(-667.000000, -251.000000)">
            <g id="газель-и-мебель" transform="translate(538.000000, 253.000000)">
                <g id="мебель" transform="translate(131.000000, 0.000000)">
                    <path d="M322.44164,210.228482 L322.043467,210.228482 L322.043467,216.936003 L236.433467,216.936003 L236.433467,213.915739 C236.225245,213.989203 236.001216,214.029171 235.767852,214.029171 L225.099082,214.029171 C223.994512,214.029171 223.099082,213.133741 223.099082,212.029171 L223.099082,210.228482 L113.081904,210.228482 L113.081904,212.029171 C113.081904,213.133741 112.186474,214.029171 111.081904,214.029171 L100.413134,214.029171 C99.308565,214.029171 98.4131345,213.133741 98.4131345,212.029171 L98.4131345,210.228482 L86.2744479,210.228482 L86.2744479,214.029171 L71.6056782,214.029171 L71.6056782,199.49501 L62.8044164,199.49501 L62.8044164,195.134761 L35.9337539,195.134761 C35.6410514,195.134761 35.3777208,195.009005 35.1948441,194.808575 L35.1948441,195.053798 L5.93375394,200 L0,200 L0,0.445320166 L6.84375379,0.445320166 L34.9337539,5.32421437 L34.9337539,4.44532017 C34.9337539,3.89303542 35.3814692,3.44532017 35.9337539,3.44532017 L315.574132,3.44532017 C316.126417,3.44532017 316.574132,3.89303542 316.574132,4.44532017 L316.574132,193.681345 L322.44164,193.681345 L322.44164,199.49501 L322.44164,210.228482 L322.44164,220.929792 C322.44164,223.138931 324.232501,224.929792 326.44164,224.929792 L378.916404,224.929792 L386.984227,227.109916 C388.451104,221.296252 390.65142,215.967059 393.585174,211.122339 C397.985804,203.855258 404.586751,193.681345 423.656151,192.954637 C442.725552,192.227929 452.260252,207.677019 453.727129,213.490683 C454.705047,217.36646 455.682965,221.906204 456.660883,227.109916 C469.373817,225.172028 478.908517,223.718612 485.264984,222.749668 C494.799685,221.296252 494.799685,206.035382 494.799685,199.49501 C494.799685,195.134761 493.332808,192.954637 490.399054,192.954637 C490.399054,190.532277 489.910095,185.44532 488.932177,177.693767 C487.954259,169.942215 474.507886,159.526066 448.59306,146.44532 L439.791798,137.724823 C412.410095,114.470165 395.05205,99.4515313 387.717666,92.6689227 C380.726102,86.2033445 360.627166,83.0395697 327.420857,83.1775981 C324.667567,83.1890427 322.441635,85.4242464 322.441635,88.1775602 L322.44164,210.228482 Z" id="Combined-Shape" stroke="#252525" stroke-width="3" fill="#FFFFFF"></path>
                    <path d="M6.17037823,5.34712989 L6.17037823,194.192189 L34.4314684,199.399455 L34.4314684,0.591173826 L6.17037823,5.34712989 Z" id="Rectangle-11-Copy-4" stroke="#252525" fill="#5070B2" transform="translate(20.300923, 100.000000) scale(-1, 1) translate(-20.300923, -100.000000) "></path>
                    <path d="M0.5,0.5 L0.5,199.5 L6.5,199.5 L6.5,0.5 L0.5,0.5 Z" id="Rectangle-10" stroke="#252525" fill="#89A7E3"></path>
                    <rect id="Rectangle-19-Copy-2" stroke="#252525" fill="#252525" x="30.1073298" y="142.721913" width="4.7829701" height="13.4284559" rx="2"></rect>
                    <rect id="Rectangle-19-Copy-3" stroke="#252525" fill="#252525" x="30.1073298" y="34.7827443" width="4.7829701" height="13.4284559" rx="2"></rect>
                    <path d="M11.8691099,168.313047 L13.6520801,168.313047 C14.7566496,168.313047 15.6520801,169.208478 15.6520801,170.313047 L15.6520801,180.068462 C15.6520801,181.043469 14.9490163,181.876388 13.9878488,182.040076 L12.2048787,182.343718 C11.1159867,182.529158 10.0829365,181.796766 9.89749656,180.707874 C9.87860584,180.596949 9.86910995,180.484627 9.86910995,180.372105 L9.86910995,170.313047 C9.86910995,169.208478 10.7645404,168.313047 11.8691099,168.313047 Z" id="Rectangle-19-Copy-4" fill="#252525"></path>
                    <path d="M12.2048787,14.9835595 L13.9878488,15.287202 C14.9490163,15.4508903 15.6520801,16.2838093 15.6520801,17.2588154 L15.6520801,27.0142305 C15.6520801,28.1188 14.7566496,29.0142305 13.6520801,29.0142305 L11.8691099,29.0142305 C10.7645404,29.0142305 9.86910995,28.1188 9.86910995,27.0142305 L9.86910995,16.9551729 C9.86910995,15.8506034 10.7645404,14.9551729 11.8691099,14.9551729 C11.9816321,14.9551729 12.0939536,14.9646688 12.2048787,14.9835595 Z" id="Rectangle-19-Copy-5" fill="#252525"></path>
                    <path d="M35.9337539,3.44532017 L315.574132,3.44532017 C316.126417,3.44532017 316.574132,3.89303542 316.574132,4.44532017 L316.574132,194.596273 L35.9337539,194.596273 C35.3814692,194.596273 34.9337539,194.148558 34.9337539,193.596273 L34.9337539,4.44532017 C34.9337539,3.89303542 35.3814692,3.44532017 35.9337539,3.44532017 Z" id="Rectangle-11" stroke="#252525" fill="#5070B2"></path>
                    <g id="logo_color-copy" transform="translate(59.567980, 67.681732)">
                        <g id="Group-2">
                            <path d="M19.2322847,34.8330954 C13.3164297,33.0554262 7.19351979,36.2552308 5.33002546,42.0919115 C3.61442751,47.95822 6.80898921,54.0911788 12.6361064,55.8688481 C18.4632236,57.7057729 24.6748713,54.4467127 26.4496278,48.610032 C28.2539636,42.7437235 25.0594019,36.6107646 19.2322847,34.8330954 Z M19.6524625,33.4405811 C26.2526954,35.45409 29.8844448,42.3988089 27.8441328,49.0323047 C25.8343126,55.6420444 18.7995836,59.336915 12.2100731,57.2595895 C5.63737168,55.2544661 1.98680834,48.3327626 3.93109221,41.6844864 C6.04750445,35.0542015 12.9775495,31.4348207 19.6524625,33.4405811 Z M18.404065,37.3514602 C15.5940339,36.5218812 12.7248442,37.2033211 10.6247157,38.9513625 C9.88523382,39.6328024 10.2697644,40.9067986 11.2163012,40.9660543 L12.9910577,41.2030768 C13.346009,41.2919603 13.7305396,41.3808438 14.1742287,41.4400994 C16.0968816,41.8252611 17.8716381,42.328934 19.587236,43.0696295 C20.5337728,43.3659078 21.3619925,43.8695807 22.2493708,44.313998 C23.136749,44.817671 24.2311822,43.9288363 23.8762309,42.9807461 C23.136749,40.3734979 21.2140962,38.2402948 18.404065,37.3514602 Z M21.5675205,45.5996292 C21.3980955,45.5144873 21.2363213,45.4305303 20.9850395,45.2983433 C20.8397059,45.2218269 20.7684335,45.1843306 20.6980729,45.1474908 C20.0000413,44.7820119 19.5880567,44.594022 19.1510904,44.4572459 L19.0784555,44.4345102 L19.0085897,44.4043462 C17.4908795,43.7490872 15.8600074,43.2635168 13.931739,42.874837 C13.5287362,42.8190782 13.1687905,42.7451305 12.7174434,42.6337753 L11.0643995,42.4130078 C8.82998772,42.2235462 8.00600776,39.3850534 9.63606465,37.8829398 L9.69128971,37.8345658 C12.2164072,35.7327849 15.6016077,35.0075398 18.8174693,35.9569283 C22.0316879,36.9733259 24.3595414,39.4048251 25.2644348,42.5357795 C26.0266806,44.7339614 23.5969269,46.7092284 21.5675205,45.5996292 Z" id="path3500_1_-copy-2" fill="#FFFFFF" fill-rule="nonzero"></path>
                            <path d="M13.0010159,45.3375773 L13.007588,45.3729302 L13.0123269,45.4086184 C13.1171505,46.198039 13.4199477,46.8658552 13.8474789,47.2706189 L14.4330125,47.8249709 L13.5093344,51.0844308 L13.4959978,51.1226926 C12.8712017,52.9151886 10.733955,53.5439182 9.28461171,52.3484748 L9.2212212,52.2961893 L9.1647672,52.2354533 C7.55240214,50.5007926 6.57329803,48.1149597 6.48033685,45.6146557 L6.4778164,45.5468651 L6.48187649,45.4791604 C6.57742355,43.8858508 7.73229435,42.754888 9.20347782,42.754888 C9.67965387,42.754888 9.87461309,42.7593193 10.143682,42.7848614 C10.2428382,42.7942741 10.3402093,42.8063174 10.4373691,42.8213783 C11.7556254,42.9430802 12.752763,44.0021646 13.0010159,45.3375773 Z M10.6110995,45.8223104 C10.55905,45.5858207 10.4053483,45.4308961 10.2191728,45.417543 L10.1667346,45.4137819 L10.1147946,45.4051851 C10.0546134,45.3952242 9.99350664,45.3873673 9.9291527,45.3812583 C9.75632947,45.3648526 9.60651571,45.3614474 9.20347782,45.3614474 C9.01943105,45.3614474 8.93652302,45.4263576 8.91372607,45.5935018 C8.99868907,47.3688562 9.69072711,49.0664186 10.8124514,50.3136766 C10.9637185,50.3998996 11.1545124,50.3413899 11.2103469,50.2286128 L11.6764481,48.5838427 C11.1176468,47.8174135 10.7556001,46.8593504 10.6110995,45.8223104 Z" id="Path" fill="#FFFFFF" fill-rule="nonzero"></path>
                            <path d="M17.3759246,54.8723073 C15.3212182,55.0918862 13.7427259,53.1796608 14.3295661,51.2761548 L14.3401612,51.243304 L15.4542512,47.9361037 L16.3407573,47.888809 C17.0739334,47.8496944 17.7440589,47.5021624 18.2048832,46.933506 L18.2257012,46.9078166 L18.2477674,46.8832127 C19.2680175,45.745628 20.9128571,45.4728007 22.2160756,46.2857216 L22.2562294,46.3118001 C22.5626159,46.5188442 22.7759282,46.6681405 23.2140434,46.9791276 C24.4879593,47.8595553 24.849552,49.6073231 23.8886093,50.8909725 C22.3525775,53.1235927 20.0522293,54.5245107 17.3759246,54.8723073 Z M17.0612727,52.2424175 C19.0044853,51.9844689 20.6409259,50.9807997 21.7487007,49.3588524 L21.7704641,49.3269876 L21.7940332,49.2964608 C21.8213953,49.2610211 21.8133125,49.2208751 21.7193964,49.155846 C21.2967051,48.8559257 21.0951029,48.7147014 20.8232841,48.5307269 C20.6257663,48.416281 20.3880561,48.4554424 20.207154,48.6449214 C19.4797533,49.527595 18.4933445,50.1426668 17.3939546,50.4026701 L16.8323688,52.0697496 C16.8166027,52.1433632 16.9104813,52.2536412 17.0612727,52.2424175 Z" id="Path" fill="#FFFFFF" fill-rule="nonzero"></path>
                            <path d="M33.0467079,49.4140165 C33.0224541,49.7510527 32.9796906,50.0989559 32.9172328,50.4568953 C32.5874526,52.2230855 31.9646519,53.6380351 31.0835573,54.5455047 C30.1345962,55.5228722 29.0804341,55.7886764 27.9590143,55.6067523 L24.2952192,55.1907794 L24.2497985,55.1824258 C22.8170253,54.9189147 21.7572044,53.7182141 21.6545542,52.2341297 C21.4933815,50.4081587 21.6391506,48.4562258 22.1850969,46.3743561 L10.8614545,43.2053946 C10.1074436,42.9781019 9.46108794,42.5660187 8.96209772,42.0311259 C8.06255602,42.980974 7.0426648,43.81809 5.78724561,44.5984362 C4.48954829,45.3895848 3.05433701,45.1286244 1.95701142,44.1251381 L1.92847451,44.0990416 L1.36359912,43.5250757 C-0.548056141,41.5826563 -0.367483708,38.2433499 2.60488734,35.4774777 C4.03585577,34.2047251 5.30877927,33.4811399 6.61491166,33.2801106 C7.45754638,33.157797 8.11688203,33.255999 8.7361966,33.5449981 L13.0622873,7.9577435 C13.2998865,6.76149581 14.0130327,5.77897809 15.0717336,5.4218619 L26.2548203,0.542661709 C27.1807805,0.169957694 28.0687817,0 29.084987,0 C29.3504864,0 29.5888427,0.0171074459 29.8381326,0.0521761208 C30.0244872,0.0783914188 30.1594712,0.103580603 30.4908042,0.170181362 L61.0674826,6.15497965 C61.9397337,6.22002574 62.3914595,6.90124227 62.3914595,7.67872888 L62.3711808,7.89633768 L56.5144844,39.0443537 C56.3099444,40.0719795 55.8847432,40.935972 55.1736906,41.6502362 L46.1134891,51.0506147 C45.4457212,51.7982721 44.5439072,52.167751 43.4842523,52.167751 C43.1395454,52.167751 43.0187262,52.163521 42.8185759,52.1315981 C42.71639,52.1153 42.6161689,52.0927824 42.5206791,52.065341 L33.0467079,49.4140165 Z" id="Combined-Shape" fill="#FFFFFF" fill-rule="nonzero"></path>
                            <path d="M43.6075811,51.0336694 C44.3476258,51.0336694 44.9396616,50.7956273 45.3836885,50.2897877 L54.4714383,40.8573671 C55.0634741,40.2622617 55.359492,39.5778905 55.5075009,38.8340087 L61.3686555,7.65048569 C61.3686555,7.4421988 61.3094519,7.29342245 61.0726376,7.29342245 L30.3755806,1.28285789 C29.9315538,1.19359208 29.6355359,1.13408154 29.191509,1.13408154 C28.3034553,1.13408154 27.5634105,1.28285789 26.8233657,1.58041059 L15.5746853,6.49003015 C14.8938441,6.69831704 14.4498172,7.38268826 14.3018083,8.12657001 L9.12149492,38.7744982 C8.91428239,40.2622617 9.80233611,41.6607594 11.2824256,42.1070884 L42.9563417,50.9741589 C43.1635542,51.0336694 43.3115632,51.0336694 43.6075811,51.0336694 Z" id="Path" fill="#D1B76B"></path>
                            <path d="M26.7277619,1.59139133 L15.5552492,6.46512063 C14.9084195,6.81957368 14.3203925,7.41032874 14.1439844,8.23738584 L9.02814964,38.7203473 C8.73413615,40.2563105 9.76318337,41.8218114 11.3214549,42.2648777 L42.6926945,50.9194395 C43.6335377,51.214817 44.6919863,50.9194395 45.2800133,50.2400711 L54.3944315,40.7289146 C54.9236558,40.197235 55.276472,39.4883289 55.4234788,38.6612718 L61.2449459,7.70570628 C61.3037486,7.498942 61.0979392,7.26263998 60.8039257,7.17402672 C57.5109746,6.58327165 36.6066152,2.53659944 30.2853252,1.26647604 C29.0210671,1.00063626 27.7568091,1.14832503 26.7277619,1.59139133 M50.4840521,16.5079568 L49.4550049,21.5884504 C49.3962022,22.0315167 49.8960251,22.4155075 50.2488413,22.1201299 C50.2488413,22.1201299 55.0118599,18.7232883 54.8060504,18.8709771 L49.1609914,25.3102073 C48.7199711,25.7532736 48.5141617,26.1963399 48.4259576,26.6984817 L47.8967334,29.5045683 C47.8379307,29.9476346 48.3377536,30.3316254 48.7199711,30.0953233 C48.7199711,30.0953233 54.012214,26.1963399 53.7770032,26.4031042 L47.5439172,33.728467 C47.1028969,34.1715333 46.8088834,34.6736751 46.7206794,35.2053547 L46.2796591,37.5092994 C46.2208564,37.9523657 46.6324753,38.3363565 47.0734956,38.040979 C47.0734956,38.040979 52.159929,34.3487598 52.0717249,34.4964486 L47.1616996,40.433537 C45.3976187,42.353491 45.1624079,43.2396236 45.0448025,44.1257562 L44.0157553,49.294863 C43.8687485,49.9446936 43.3689256,50.3286844 42.6926945,50.1809956 L11.7330738,41.6741227 C10.3512104,41.2310564 9.46916988,39.960933 9.76318337,38.4840453 L14.9084195,7.9420083 C14.9084195,7.8829328 15.0554262,7.73524403 15.2612357,7.73524403 L49.3668008,14.8243048 C49.3668008,14.7947671 50.7780656,15.1787579 50.4840521,16.5079568 M49.4550049,14.1449365 L23.787627,8.73952764 L17.4663369,6.81957368 C17.2311261,6.76049817 17.2311261,6.46512063 17.4663369,6.37650737 L27.2275848,2.18214639 C28.1096253,1.73908009 28.9916658,1.73908009 29.8737063,1.88676886 L59.2750555,7.55801751 C59.5102663,7.55801751 59.569069,7.91247055 59.3338582,8.08969707 L51.8659155,13.613257 C51.1308818,14.1449365 50.2488413,14.3517008 49.4550049,14.1449365" id="path3488" fill="#000000"></path>
                            <path d="M46.3263472,23.5682764 L46.177961,23.8157124 L46.1186065,23.8157124 C42.8541108,21.4960002 39.9457419,20.2588203 35.7909292,19.3309354 C35.4348024,19.1762879 35.13803,18.7742045 35.256739,18.4030505 L35.4051252,17.6298131 C35.4644796,17.1658706 35.8502837,17.0112231 36.2954422,17.0112231 C40.0050964,17.8772491 42.8244336,19.1144289 45.7328025,20.9701987 C46.5637651,21.4650707 46.8605374,22.7022505 46.3263472,23.5682764" id="path3492" fill="#000000"></path>
                            <path d="M46.5947199,23.2102314 C45.1158317,29.8843803 40.5312783,29.7925342 36.9819466,29.2720731 C33.669237,28.8128426 31.9537267,26.6697673 31.3621714,24.0062308 C31.1255493,23.3326928 30.918505,22.6285395 30.3269497,22.4754627 L28.9367948,22.0162322 C28.3452395,21.8631554 27.6057954,22.169309 27.162129,22.6897702 C25.3874631,24.7716148 22.8141976,25.9962293 20.3000877,25.2002299 C15.7746898,23.7306925 14.5915793,20.2405412 14.9760902,16.1686981 L46.5947199,23.2102314 M26.4818404,15.0053143 L26.2452183,15.7706984 C26.1860627,16.076852 25.8902851,16.2299288 25.5945075,16.2299288 C21.0986873,15.6788523 14.7986236,16.076852 14.7986236,16.076852 C14.7986236,16.076852 14.4436904,14.3930071 16.4254006,13.7806998 C19.6789547,13.4745462 22.1930646,13.5663923 25.8902851,14.1480842 C26.3339516,14.2399302 26.5705737,14.6991607 26.4818404,15.0053143" id="path3496" fill="#000000"></path>
                            <path d="M19.0446643,34.5271621 C13.2608068,32.6976247 7.27451434,35.990792 5.45259924,41.9977731 C3.77528057,48.0352465 6.89856361,54.3471505 12.5956632,56.1766879 C18.2927628,58.0672098 24.3658132,54.713058 26.1009704,48.7060769 C27.8650469,42.6686035 24.7417639,36.3566995 19.0446643,34.5271621 M18.2349242,37.1190068 C20.9822565,38.0337755 22.8620102,40.2292203 23.5849924,42.9125418 C23.9320238,43.8882951 22.8620102,44.8030638 21.9944316,44.2846949 C21.126853,43.8273105 20.3171129,43.3089416 19.3916957,43.0040187 C17.7143771,42.2417114 15.9792198,41.7233425 14.0994662,41.3269428 C13.6656768,41.2659582 13.2897261,41.1744813 12.9426947,41.0830044 L11.2075374,40.8390661 C10.2821202,40.7780815 9.90616949,39.4669131 10.6291517,38.7655904 C12.6824211,36.9665453 15.4875919,36.2652227 18.2349242,37.1190068 M9.21210659,44.0407565 C9.6458959,44.0407565 9.99292735,44.0407565 10.3688781,44.1017411 C11.2364567,44.1627257 11.8148425,44.8640484 11.9594389,45.6263556 C12.1040353,46.6935858 12.5378246,47.6998313 13.2608068,48.3706617 L12.5378246,50.8710295 C12.1907932,51.8467827 10.9472638,52.2431825 10.0796852,51.5418598 C8.63372085,50.0172453 7.70830365,47.8827851 7.62154579,45.5958633 C7.67938436,44.6506023 8.34452797,44.0407565 9.21210659,44.0407565 M15.4297534,51.9077673 L16.2394934,49.4073995 C17.3384263,49.346415 18.3216821,48.7975538 18.9868257,47.9437696 C19.5652115,47.2729393 20.4906287,47.0899855 21.2425301,47.5778622 C21.5895616,47.8218005 21.8787544,48.0352465 22.1679473,48.2486925 C22.8041716,48.7060769 23.0355259,49.6208456 22.5149788,50.3221682 C21.2136108,52.3041671 19.2760186,53.5238587 17.0203142,53.8287816 C15.9213813,53.9507507 15.1405605,52.8835206 15.4297534,51.9077673" id="path3500_1_" fill="#7290CB"></path>
                            <path d="M16.0011121,56.7040772 C14.8530823,56.7040772 13.6756159,56.5270186 12.5570228,56.1729016 C6.5519439,54.343297 3.25503786,48.1167395 5.02123753,42.008221 C6.9346205,35.958722 13.2046293,32.6831396 19.3274548,34.5422539 L19.3274548,34.5422539 C25.2736603,36.3423487 28.600003,42.716455 26.7749301,48.7364443 C25.8918302,51.6283999 23.9195739,54.0186898 21.2408378,55.4351578 C19.6218214,56.2614309 17.8261851,56.7040772 16.0011121,56.7040772 L16.0011121,56.7040772 Z M15.9128021,34.7488222 C11.3501197,34.7488222 7.19955045,37.6407778 5.75715405,42.2147892 C4.10870103,47.939681 7.19955045,53.753102 12.792516,55.4646676 C15.5301255,56.3204504 18.4149183,56.0843724 20.9464712,54.7564336 C23.4485874,53.4284948 25.2736603,51.2152634 26.0978869,48.5003663 C27.8052132,42.8640038 24.6849271,36.9325438 19.1213982,35.2504879 C18.0616784,34.8963709 16.9725219,34.7488222 15.9128021,34.7488222 L15.9128021,34.7488222 Z M16.9725219,53.9006508 C16.442662,53.9006508 15.9128021,53.6645728 15.5595622,53.2514362 C15.1474489,52.7792802 15.0297023,52.1595754 15.2063223,51.5693804 L15.2063223,51.5693804 L16.0894221,48.9135028 L16.3249154,48.883993 C17.3257619,48.8249735 18.267735,48.3528175 18.8564682,47.6150737 C19.5629481,46.8183105 20.7109779,46.6412519 21.6235144,47.1724275 C22.006191,47.4085055 22.3005576,47.6445835 22.6243608,47.8511518 C23.0364741,48.1167395 23.3308407,48.5593858 23.389714,49.0610516 C23.478024,49.5332076 23.3308407,50.0053636 23.0364741,50.3594806 C21.6823877,52.3071242 19.5923848,53.5760435 17.2080152,53.9006508 C17.1197052,53.9006508 17.0608319,53.9006508 16.9725219,53.9006508 L16.9725219,53.9006508 Z M15.9128021,51.8054584 C15.8244921,52.1300657 15.8833655,52.5136925 16.1188588,52.7792802 C16.354352,53.0743777 16.7370286,53.2219265 17.1197052,53.162907 C19.3274548,52.8678095 21.2114011,51.7169292 22.4477409,49.9168343 C22.6832342,49.6217368 22.6832342,49.3561491 22.6537975,49.1495808 C22.5949242,48.8544833 22.4477409,48.5888955 22.1828109,48.4413468 C21.8590077,48.2052688 21.5940777,47.9987005 21.2408378,47.7921322 C20.6521046,47.4380152 19.8867514,47.5560542 19.4157648,48.0872298 C18.7387216,48.9135028 17.7378751,49.4446783 16.619282,49.5922271 L15.9128021,51.8054584 L15.9128021,51.8054584 Z M11.1146264,52.1005559 C10.6730765,52.1005559 10.2609632,51.9530072 9.90772327,51.6874194 L9.8782866,51.6579097 C8.28870691,50.0643831 7.34673375,47.8806615 7.25842377,45.6674302 L7.25842377,45.6379204 L7.25842377,45.6084107 C7.34673375,44.4870401 8.1415236,43.7197866 9.23068006,43.7197866 C9.67222998,43.7197866 10.0549066,43.7197866 10.4670198,43.8083158 C11.4384296,43.8968451 12.2037828,44.6050791 12.3804028,45.5789009 C12.5275861,46.5822324 12.9396994,47.467525 13.5873059,48.0282103 L13.7639259,48.175759 L12.969136,50.8316366 C12.7336427,51.4218317 12.2920928,51.8349682 11.6739229,52.0120267 C11.4678663,52.0710462 11.2912463,52.1005559 11.1146264,52.1005559 L11.1146264,52.1005559 Z M10.3492732,51.0972244 C10.6730765,51.3333024 11.0851897,51.3923219 11.4678663,51.3037927 C11.8505429,51.1857537 12.1449095,50.9496756 12.2626562,50.5955586 L12.9102627,48.411837 C12.2332195,47.7331127 11.7916696,46.7888007 11.6444863,45.6969399 C11.5267396,45.1657644 11.0851897,44.6050791 10.3492732,44.5460596 L10.3198365,44.5460596 C9.99603325,44.4870401 9.64279332,44.4870401 9.2012434,44.4870401 C8.49476353,44.4870401 8.02377696,44.9296864 7.96490363,45.6674302 C8.05321362,47.6740932 8.90687679,49.6512466 10.3492732,51.0972244 L10.3492732,51.0972244 Z M22.8009808,44.8411571 C22.5360509,44.8411571 22.3005576,44.7821376 22.0650643,44.6345889 C21.829571,44.5165499 21.5940777,44.3985108 21.3585844,44.2804718 C20.7404145,43.9558646 20.1516813,43.6312573 19.4746381,43.4246891 L19.4452015,43.4246891 C17.8556218,42.716455 16.1188588,42.2147892 14.1466025,41.8311625 C13.7050525,41.772143 13.3518126,41.6836137 12.969136,41.5950845 L11.232373,41.3885162 C10.6730765,41.3590065 10.2020899,40.9753797 10.0254699,40.4146944 C9.81941328,39.8244994 9.99603325,39.1752849 10.4670198,38.7621483 C12.6747694,36.8735243 15.6773088,36.2243097 18.532665,37.0505828 L18.532665,37.0505828 C21.3291478,37.9358753 23.4191507,40.0605774 24.2139405,42.8935135 C24.4199972,43.4541988 24.2433772,44.0739036 23.7723906,44.4870401 C23.5074607,44.6936084 23.1542207,44.8411571 22.8009808,44.8411571 L22.8009808,44.8411571 Z M19.7395681,42.716455 C20.4460479,42.952533 21.0936545,43.2771403 21.7118244,43.6312573 C21.9473176,43.7492963 22.1828109,43.8673353 22.4183042,44.0148841 C22.7715442,44.2214523 23.1247841,44.1034133 23.3014041,43.9263548 C23.389714,43.8378256 23.6840806,43.5722378 23.5074607,43.1295915 L23.5074607,43.1000818 C22.7715442,40.5032237 20.8875978,38.5555801 18.2971717,37.7588168 C15.6773088,36.9915633 12.9396994,37.5817583 10.9085697,39.3228336 C10.6142031,39.5884214 10.6142031,39.9425384 10.7025131,40.1786164 C10.7908231,40.4442042 11.0263164,40.6507724 11.2912463,40.6507724 L13.0868827,40.8868504 C13.4695593,40.9753797 13.8522358,41.0343992 14.2937858,41.1229284 C16.2954787,41.4475357 18.091115,41.9787112 19.7395681,42.716455 L19.7395681,42.716455 Z" id="Shape" fill="#2F4155"></path>
                            <path d="M26.8569953,36.9458758 C19.8750587,34.8843144 17.7062018,29.1543865 17.0525737,26.698703 C16.993153,26.2439469 17.4090982,25.9407761 17.7062018,26.1529956 C19.5482447,27.0018738 23.7076963,28.8815327 28.1048308,30.0942159 C31.7294957,31.1553137 38.444039,31.3978503 40.5237648,31.4584845 C40.8802892,31.4584845 40.9694203,31.8222894 40.8802892,32.0648261 C39.8404263,33.8535337 36.1266303,39.0074372 26.8569953,36.9458758" id="path3508" fill="#000000"></path>
                            <path d="M38.8747314,33.1177259 C39.1028637,32.8782101 38.9317645,32.5788152 38.6465991,32.5788152 C35.3671972,32.6686337 31.7455968,32.3692389 28.0384468,31.381236 C24.2457472,30.4830516 20.4815641,28.6866828 18.9701875,27.9381957 C18.6850221,27.7884983 18.4568898,28.0878931 18.5424395,28.3872879 C19.9112333,31.2315386 22.4777218,34.6745789 27.7247649,35.5128844 C31.7455968,36.2613714 35.8804949,35.8122792 38.8747314,33.1177259" id="path3512" fill="#FFFFFF"></path>
                            <path d="M42.0488936,11.3455 L48.9315302,12.4150754 C50.1181917,12.6022511 51.3048532,12.3348573 52.2541824,11.826809 L56.8228291,9.07265234 C52.2838489,10.6770154 50.4445236,11.5594151 42.0488936,11.3455" id="path3532" fill="#000000"></path>
                            <path d="M24.4071292,53.9641843 C23.5631855,53.8104775 22.9603685,53.1341678 22.9000868,52.2734099 C22.7493826,50.5826354 22.8398051,48.1848098 23.8645939,45.2643812 C24.1660024,44.4036233 24.9195236,44.0962098 25.6730448,44.2806579 L29.2296647,44.7417782 C30.4955803,44.895485 32.4848762,46.3403286 31.7916367,50.2752219 C31.4902282,51.8737723 30.947693,53.0419437 30.2845944,53.7182535 C29.5310732,54.4867873 28.777552,54.4867873 28.2350168,54.3945633 L24.4071292,53.9641843 L24.4071292,53.9641843 Z" id="Shape" fill="#D1B76B"></path>
                            <path d="M28.4321202,54.4359141 C28.2374235,54.4359141 28.0983545,54.4072939 28.0149131,54.4072939 L24.4547463,53.9779912 C23.5368909,53.8062702 22.8693596,53.0335254 22.7859182,52.0890595 C22.5912216,49.913926 22.8971734,47.6815521 23.7037737,45.420558 C24.0097255,44.5333325 24.8163258,44.0754097 25.7619951,44.2757509 L29.01621,44.7050536 C29.7671827,44.7909141 30.5181554,45.2774571 31.0188038,45.9643414 C31.5472661,46.6798459 32.0757283,48.0249942 31.6863351,50.2859883 C31.4081971,51.8314779 30.9075486,52.976285 30.2122036,53.6917894 C29.5446723,54.2928132 28.877141,54.4359141 28.4321202,54.4359141 L28.4321202,54.4359141 Z M24.5660016,53.2624868 L28.0983545,53.6917894 C28.5433754,53.7490298 29.0996514,53.7490298 29.6837413,53.1480061 C30.2678312,52.5469823 30.712852,51.4880357 30.99099,50.1142672 C31.3247557,48.1108548 30.8797348,46.9660476 30.434714,46.3650239 C30.0453207,45.8212405 29.4890447,45.4491782 28.9049548,45.3919379 L25.6229261,44.9626352 C25.0110224,44.8481545 24.510374,45.1057361 24.3156773,45.6495195 C23.5368909,47.7960328 23.2587528,49.9425461 23.4256356,52.0031989 C23.5368909,52.6328429 23.9540979,53.1480061 24.5660016,53.2624868 L24.5660016,53.2624868 Z" id="Shape" fill="#000000"></path>
                            <path d="M9.18640328,36.110739 C9.74256771,36.7318089 9.79818416,37.6634138 9.40886905,38.4397512 C8.5746224,39.8371585 7.26763597,41.7935288 4.90393712,43.4083106 C4.20873158,43.874113 3.51352603,43.6567386 2.9573616,43.0977756 L2.4568136,42.5388127 C1.62256695,41.6072078 0.927361404,39.1850351 3.56914247,36.4833809 C4.68147135,35.3965086 5.65475911,34.7754387 6.57243043,34.6201712 C7.54571819,34.4649037 8.10188263,34.9307061 8.51900595,35.3033481 L9.18640328,36.110739 L9.18640328,36.110739 Z" id="Shape" fill="#D1B76B"></path>
                            <path d="M4.05052091,44.2291802 C3.55512998,44.2291802 3.0305984,44.0031529 2.56434811,43.5510985 L2.03981653,42.9698856 C1.45700366,42.3240935 1.13645658,41.3554054 1.13645658,40.3544276 C1.16559723,39.3534499 1.51528495,37.8035488 3.20544226,36.0921998 C4.45848992,34.8974844 5.53669372,34.2194027 6.5274756,34.0579547 C7.75138262,33.8642171 8.4798987,34.5100092 8.85872706,34.8651948 L8.8878677,34.8974844 L9.61638379,35.7047245 C10.3157592,36.4796751 10.4323218,37.6421008 9.87864958,38.610789 C8.94614899,40.1929796 7.54739811,42.1949351 5.01216214,43.9062841 C4.74989635,44.1323114 4.40020863,44.2291802 4.05052091,44.2291802 L4.05052091,44.2291802 Z M7.02286653,34.8329052 C6.90630396,34.8329052 6.78974139,34.8329052 6.67317881,34.8651948 C5.82810016,35.0266428 4.86645893,35.6078557 3.72997384,36.7057023 C2.56434811,37.9004177 1.92325395,39.1597122 1.89411331,40.3867172 C1.86497267,41.549143 2.41864489,42.2272247 2.56434811,42.4209623 L3.08887968,43.0021752 C3.4385674,43.3573609 4.02138027,43.6802569 4.69161507,43.260492 C7.08114782,41.6137222 8.42161741,39.7086355 9.32497735,38.2233137 C9.67466507,37.5775216 9.61638379,36.8348607 9.15013349,36.318227 L8.42161741,35.5109869 C8.04278905,35.1235117 7.63482004,34.8329052 7.02286653,34.8329052 L7.02286653,34.8329052 Z" id="Shape" fill="#000000"></path>
                        </g>
                        <g id="Group-4" transform="translate(68.187395, 1.134082)" fill="#FFFFFF">
                            <path d="M31.4993978,19.8107236 L22.8808863,19.8107236 L23.6573288,15.8113197 L30.5288447,15.8113197 C31.4217535,15.8113197 31.8099748,15.9301139 31.887619,15.2173489 L32.198196,13.6334266 C32.198196,13.3166421 32.198196,12.8414654 31.6158641,12.8414654 L24.2784828,12.8414654 L24.666704,9.83201302 L32.4699509,9.83201302 C33.3628597,9.83201302 33.8287252,9.51522855 33.9451916,8.92125769 L34.3334128,6.50577617 C34.4498792,6.10979559 34.3334128,5.79301113 33.7510809,5.79301113 L21.9879775,5.79301113 C21.4056456,5.79301113 21.0950687,6.10979559 21.0174244,6.50577617 L18.1834094,23.0181662 C18.066943,23.532941 18.1834094,23.8101274 18.7657412,23.8101274 L31.2276429,23.8101274 C31.8099748,23.8101274 32.1205517,23.6121371 32.198196,23.0181662 L32.5864172,20.800675 C32.6640615,20.08791 32.2758402,19.8107236 31.4993978,19.8107236" id="path3356"></path>
                            <path d="M63.9925367,19.8107236 L55.3740253,19.8107236 L56.1504678,15.8113197 L63.0219836,15.8113197 C63.9148925,15.8113197 64.3031137,15.9301139 64.380758,15.2173489 L64.6913349,13.6334266 C64.6913349,13.3166421 64.6913349,12.8414654 64.1090031,12.8414654 L56.7716217,12.8414654 L57.159843,9.83201302 L65.0019119,9.83201302 C65.8948208,9.83201302 66.3606863,9.51522855 66.4771526,8.92125769 L66.8653739,6.50577617 C66.9818402,6.10979559 66.8653739,5.79301113 66.283042,5.79301113 L54.5199386,5.79301113 C53.9376067,5.79301113 53.6270297,6.10979559 53.5493855,6.50577617 L50.7153705,23.0181662 C50.5989041,23.532941 50.7153705,23.8101274 51.2977023,23.8101274 L63.759604,23.8101274 C64.3419358,23.8101274 64.6525128,23.6121371 64.7301571,23.0181662 L65.1183783,20.800675 C65.1960226,20.08791 64.7689792,19.8107236 63.9925367,19.8107236" id="path3356_1_"></path>
                            <path d="M138.242107,19.8107236 L129.313019,19.8107236 L130.089461,15.8113197 L136.960977,15.8113197 C137.853886,15.8113197 138.242107,15.9301139 138.319751,15.2173489 L138.630328,13.6334266 C138.630328,13.3166421 138.630328,12.8414654 138.047997,12.8414654 L130.710615,12.8414654 L131.098836,9.83201302 L138.940905,9.83201302 C139.833814,9.83201302 140.29968,9.51522855 140.416146,8.92125769 L140.804367,6.50577617 C140.920834,6.10979559 140.804367,5.79301113 140.222035,5.79301113 L128.342466,5.79301113 C127.760134,5.79301113 127.449557,6.10979559 127.371913,6.50577617 L124.537898,23.0181662 C124.421431,23.532941 124.537898,23.8101274 125.120229,23.8101274 L137.465665,23.8101274 C138.047997,23.8101274 138.358574,23.6121371 138.436218,23.0181662 L138.824439,20.800675 C138.940905,20.08791 138.513862,19.8107236 137.93153,19.8107236" id="path3356_2_"></path>
                            <path d="M46.9364109,14.7025741 C48.1010746,14.3857897 49.3822047,13.1186518 49.5763153,11.4951314 C50.1586471,7.6937179 47.5187427,5.79301113 43.7918189,5.79301113 C40.375472,5.79301113 37.1144136,7.49572761 36.7261924,10.1883955 C36.5320818,10.7823664 36.7261924,10.7031703 37.23088,10.7031703 L39.5990295,10.7031703 C40.1037171,10.7031703 40.1813614,10.8219645 40.375472,10.50518 C40.8801596,9.19844409 42.2389339,9.19844409 43.1318428,9.19844409 C44.2188622,9.19844409 45.5776366,9.59442467 45.1894153,11.217945 C44.8788383,12.3266907 44.1023959,12.7226712 42.4330446,12.7226712 L41.1519145,12.7226712 C40.6472269,12.7226712 40.4531163,13.237446 40.375472,13.6334266 L40.064895,15.6529275 C39.8707844,16.1677023 40.064895,16.642879 40.6472269,16.642879 L41.8118906,16.642879 C43.6753525,16.642879 44.6459056,17.0388595 44.451795,18.6623799 C44.141218,20.0483119 42.7824437,20.5630867 41.5013136,20.5630867 C40.7248711,20.5630867 39.1331641,20.0483119 38.9390534,18.6623799 C38.9390534,18.1476051 38.7449428,17.6724285 38.3567216,17.6724285 L35.8721057,17.6724285 C35.3674181,17.6724285 35.1733075,18.068409 35.0956632,18.6623799 C34.5909756,21.473842 37.2697021,23.7705293 40.7636932,23.7705293 C44.4906171,23.7705293 47.8293197,22.4637934 48.6057622,18.2663993 C48.7998728,16.3260945 48.2951852,15.336143 46.9364109,14.7025741" id="path3360"></path>
                            <path d="M70.2491758,5.83260918 C69.6668439,5.83260918 69.3562669,6.22858976 69.2786227,6.62457034 L68.8904015,8.92125769 C68.6962908,9.51522855 68.8904015,9.71321884 69.4727333,9.71321884 L73.781989,9.71321884 L71.4138395,22.8993721 C71.2973731,23.4933429 71.6079501,23.6913332 71.9961713,23.6913332 L74.7525421,23.6913332 C75.334874,23.6913332 75.645451,23.4933429 75.7230952,22.8993721 L77.9747784,9.71321884 L82.2063898,9.71321884 C82.7887217,9.71321884 83.0992987,9.51522855 83.1769429,9.11924798 L83.5651642,6.70376645 C83.6816305,6.10979559 83.5651642,5.79301113 82.9828323,5.79301113 C82.9828323,5.83260918 70.4044643,5.83260918 70.2491758,5.83260918 L70.2491758,5.83260918 Z" id="path3368_1_"></path>
                            <path d="M66.5049311,3.2354726 C66.8991885,3.2354726 67.2783369,3.20142183 67.3571884,2.76042135 C67.4360399,2.31942086 67.4950159,1.94821508 67.6513841,0.994562631 C67.8077523,0.040910181 67.1419889,0.224113328 66.9417208,0.272925473 C66.7414527,0.321737618 58.2454868,2.59180469 58.2454868,2.59180469 C58.0609433,2.65008791 57.6144546,2.76042135 57.6101449,2.97800568 C57.6058352,3.19559001 57.8841242,3.2354726 58.2454868,3.2354726 L66.5049311,3.2354726 Z" id="path3372"></path>
                            <path d="M116.935242,9.39643438 C118.410482,9.39643438 119.186925,9.79241496 119.497502,10.5843761 C119.613968,10.9803567 119.613968,11.5743276 120.1963,11.5743276 L122.836205,11.5743276 C123.418536,11.5743276 123.612647,11.2575431 123.806758,10.7823664 C124.117335,7.37693344 120.972743,5.79301113 117.63404,5.79301113 C114.489448,5.79301113 110.68488,6.78296257 109.40375,11.5743276 L108.31673,17.7912226 C107.617932,21.9094206 111.344856,23.8101274 114.489448,23.8101274 C117.828151,23.8101274 121.826829,21.5926362 122.525628,18.3059974 C122.642094,17.7120265 122.331517,17.3160459 121.943296,17.3160459 L119.303391,17.3160459 C118.721059,17.3160459 118.604593,17.7120265 118.410482,18.4247915 C117.905795,19.7315275 116.741131,20.2067041 115.26589,20.2067041 C113.518895,20.2067041 112.50952,19.2167527 112.70363,17.7120265 L113.674183,12.3266907 C113.79065,10.3863858 115.188246,9.39643438 116.935242,9.39643438" id="path3376"></path>
                            <path d="M160.907293,5.79451783 L157.879168,5.79451783 C157.102725,5.79451783 156.792148,6.50728287 156.520393,6.70527316 L151.628806,13.3973449 L148.988901,6.70527316 C148.794791,6.30929258 148.60068,5.79451783 147.901882,5.79451783 L145.145511,5.79451783 C144.563179,5.79451783 144.252602,6.19049841 144.174958,6.58647898 L141.418587,22.9008788 C141.302121,23.4948496 141.535054,23.8116341 142.000919,23.8116341 L144.75729,23.8116341 C145.261978,23.8116341 145.533732,23.6136438 145.727843,22.9008788 L147.280728,13.7141294 L149.260656,18.3075041 C149.454767,18.6242885 149.571233,18.8222788 149.842988,18.8222788 L151.201762,18.8222788 C151.589984,18.8222788 151.900561,18.5054944 152.094671,18.3075041 L155.627485,13.7141294 L153.958133,22.9008788 C153.841667,23.4948496 154.152244,23.8116341 154.540465,23.8116341 L157.490947,23.8116341 C157.995634,23.8116341 158.267389,23.6136438 158.4615,22.9008788 L161.21787,6.70527316 C161.334337,5.71532171 160.907293,5.79451783 160.907293,5.79451783 L160.907293,5.79451783 Z" id="path3384_2_"></path>
                            <path d="M17.1545258,10.7823664 C17.6592134,8.16889459 15.9898621,5.79301113 11.56414,5.79301113 L3.79971534,5.79301113 C3.21738349,5.79301113 2.9068065,6.30778588 2.82916225,6.70376645 L0.0727914816,22.8993721 C-0.121319136,23.4933429 0.0727914816,23.8101274 0.655123335,23.8101274 L8.69130291,23.8101274 C12.6123374,23.8101274 15.5628188,22.0282148 16.1451506,18.701978 C16.7274825,15.8113197 14.6699099,14.7817702 14.3981551,14.5837799 C14.7087321,14.5837799 16.7663046,13.5146324 17.1545258,10.7823664 L17.1545258,10.7823664 Z M12.3794046,17.7120265 C12.3794046,19.2959488 11.4864958,19.8107236 9.62303387,19.8107236 L4.80909055,19.8107236 L5.39142241,16.2073003 L10.2053657,16.2073003 C12.3794046,16.2864964 12.3794046,17.7120265 12.3794046,17.7120265 L12.3794046,17.7120265 Z M10.3994763,12.8018673 L5.97375426,12.8018673 L6.55608611,9.59442467 L10.7876976,9.59442467 C12.0688277,9.59442467 12.8452701,9.99040525 12.7676259,11.178347 C12.8452701,11.178347 12.7676259,12.8018673 10.3994763,12.8018673 L10.3994763,12.8018673 Z" id="path3392"></path>
                            <path d="M106.578597,10.7823664 C107.083284,8.16889459 105.413933,5.79301113 100.988211,5.79301113 L93.3402526,5.79301113 C92.7579207,5.79301113 92.4473437,6.30778588 92.3696995,6.70376645 L89.5356845,22.8993721 C89.3415738,23.4933429 89.5356845,23.8101274 90.1180163,23.8101274 L98.1541959,23.8101274 C102.07523,23.8101274 105.025712,22.0282148 105.608044,18.701978 C106.306842,15.8113197 104.132803,14.7817702 103.861048,14.5837799 C104.132803,14.5837799 106.190375,13.5146324 106.578597,10.7823664 L106.578597,10.7823664 Z M101.764653,17.7120265 C101.764653,19.2959488 100.871745,19.8107236 99.0082826,19.8107236 L94.1943393,19.8107236 L94.7766711,16.2073003 L99.5906144,16.2073003 C101.764653,16.2864964 101.764653,17.7120265 101.764653,17.7120265 L101.764653,17.7120265 Z M99.7847251,12.8018673 L95.359003,12.8018673 L95.9413348,9.59442467 L100.289413,9.59442467 C101.570543,9.59442467 102.346985,9.99040525 102.269341,11.178347 C102.269341,11.178347 102.152875,12.8018673 99.7847251,12.8018673 L99.7847251,12.8018673 Z" id="path3392_1_"></path>
                        </g>
                        <g id="Group-5" transform="translate(65.914482, 28.352039)" fill="#FFFFFF">
                            <path d="M0.300599554,7.32964203 C0.300599554,6.01580422 0.659017756,4.9562576 1.37585416,4.15100217 C2.09269056,3.34574674 3.00864819,2.96430996 4.16355128,2.96430996 C5.1591574,2.96430996 5.91581805,3.26098301 6.47335747,3.85432912 C7.0308969,4.44767523 7.30966661,5.21054879 7.30966661,6.22771355 C7.30966661,7.3720239 6.95124841,8.38918865 6.27423625,9.23682595 C5.55739985,10.0844632 4.64144222,10.5082819 3.48653913,10.5082819 C2.84935121,10.5082819 2.29181179,10.3811363 1.81392085,10.0844632 C1.33602991,9.83017206 0.977611713,9.44873527 0.698842001,8.9401529 C0.420072288,8.38918865 0.300599554,7.88060628 0.300599554,7.32964203 L0.300599554,7.32964203 Z M5.47775136,5.93104049 C5.47775136,5.46483998 5.35827862,5.12578506 5.11933316,4.82911201 C4.88038769,4.53243896 4.56179373,4.40529336 4.16355128,4.40529336 C3.76530884,4.40529336 3.40689064,4.53243896 3.12812092,4.78673015 C2.80952697,5.04102133 2.5705815,5.42245812 2.41128452,5.93104049 C2.25198754,6.43962287 2.17233905,6.86344152 2.17233905,7.28726017 C2.17233905,7.79584255 2.29181179,8.21966119 2.5705815,8.51633425 C2.84935121,8.8130073 3.16794517,8.98253476 3.56618761,8.98253476 C4.0839028,8.98253476 4.48214524,8.77062544 4.84056344,8.30442492 C5.23880589,7.62631509 5.47775136,6.86344152 5.47775136,5.93104049 L5.47775136,5.93104049 Z" id="Shape"></path>
                            <polygon id="Shape" points="9.14158186 3.13383742 10.9336729 3.13383742 10.4159577 5.8038949 12.9248851 5.8038949 13.4426003 3.13383742 15.2346913 3.13383742 13.8010185 10.2963726 12.0089275 10.2963726 12.6062911 7.28726017 10.0973637 7.28726017 9.50000007 10.2963726 7.70790906 10.2963726"></polygon>
                            <path d="M17.4250248,3.13383742 L23.159716,3.13383742 L21.7260432,10.2963726 L19.9339522,10.2963726 L21.049031,4.65958455 L18.7392248,4.65958455 L17.9825642,8.43157052 C17.8232672,9.15206222 17.5843217,9.70302646 17.2259035,9.99969952 C16.8674853,10.2963726 16.3895944,10.4659 15.7524065,10.4659 C15.4338125,10.4659 15.0753943,10.4235182 14.5975034,10.2963726 L14.8762731,8.68586171 C15.1152186,8.72824357 15.354164,8.77062544 15.5532853,8.77062544 C15.8718792,8.77062544 16.0710004,8.64347984 16.1904732,8.43157052 C16.3099459,8.21966119 16.4294186,7.75346068 16.5887156,7.11773271 L17.4250248,3.13383742 L17.4250248,3.13383742 Z" id="Shape"></path>
                            <path d="M25.9474131,5.16816693 L24.1553221,4.99863947 C24.3544433,4.3629115 24.7128615,3.85432912 25.2305767,3.5152742 C25.7482919,3.17621928 26.3854798,2.96430996 27.2217889,2.96430996 C28.0979223,2.96430996 28.7351102,3.13383742 29.1333527,3.5152742 C29.5315951,3.89671098 29.7705406,4.32052963 29.7705406,4.87149387 C29.7705406,5.0834032 29.7705406,5.33769439 29.7307163,5.54960371 C29.6908921,5.8038949 29.5714194,6.43962287 29.3722981,7.45678763 C29.2130012,8.30442492 29.0935284,8.89777103 29.0935284,9.23682595 C29.0935284,9.533499 29.1333527,9.87255392 29.2528254,10.2539907 L27.5005586,10.2539907 C27.4209102,9.99969952 27.3810859,9.70302646 27.3810859,9.44873527 C27.1023162,9.74540833 26.8235465,9.99969952 26.4651283,10.169227 C26.1067101,10.3387544 25.7881161,10.4235182 25.4296979,10.4235182 C24.8721585,10.4235182 24.3942676,10.2116088 24.0358494,9.83017206 C23.6774312,9.44873527 23.4783099,8.9401529 23.4783099,8.34680679 C23.4783099,7.66869695 23.6774312,7.11773271 24.0756736,6.69391406 C24.4739161,6.27009541 25.1907525,6.05818609 26.2261828,5.97342236 C27.1023162,5.88865863 27.6598556,5.8038949 27.9784496,5.67674931 C28.0580981,5.42245812 28.0979223,5.21054879 28.0979223,5.04102133 C28.0979223,4.82911201 28.0182738,4.65958455 27.8589768,4.53243896 C27.6996799,4.40529336 27.4607344,4.32052963 27.1421404,4.32052963 C26.8235465,4.32052963 26.5447768,4.40529336 26.3854798,4.53243896 C26.1465343,4.70196642 26.0270616,4.87149387 25.9474131,5.16816693 L25.9474131,5.16816693 Z M27.6598556,6.94820525 C27.5403829,6.99058712 27.4209102,6.99058712 27.2217889,7.03296898 C26.3058313,7.16011457 25.7084676,7.32964203 25.4296979,7.54155136 C25.2305767,7.71107882 25.1509282,7.92298814 25.1509282,8.17727933 C25.1509282,8.38918865 25.2305767,8.60109798 25.3898737,8.72824357 C25.5491707,8.89777103 25.7482919,8.9401529 25.9872373,8.9401529 C26.2660071,8.9401529 26.5049525,8.85538917 26.7837222,8.72824357 C27.0226677,8.60109798 27.2217889,8.38918865 27.3412617,8.17727933 C27.4607344,7.96537001 27.5802071,7.62631509 27.6598556,7.11773271 L27.6598556,6.94820525 L27.6598556,6.94820525 Z" id="Shape"></path>
                            <path d="M31.8414013,3.13383742 L33.6733166,3.13383742 L32.8370074,7.3720239 C32.7175347,7.88060628 32.6777104,8.17727933 32.6777104,8.30442492 C32.6777104,8.51633425 32.7573589,8.68586171 32.8768317,8.85538917 C33.0361287,8.98253476 33.1954256,9.06729849 33.4343711,9.06729849 C33.5936681,9.06729849 33.7529651,9.02491663 33.912262,8.98253476 C34.071559,8.89777103 34.230856,8.8130073 34.390153,8.68586171 C34.5494499,8.55871611 34.7087469,8.38918865 34.8282197,8.21966119 C34.9476924,8.05013374 35.0671651,7.83822441 35.1866379,7.54155136 C35.2662864,7.32964203 35.3459348,6.99058712 35.4654076,6.5243866 L36.1424197,3.09145555 L37.974335,3.09145555 L36.5804864,10.2539907 L34.8680439,10.2539907 L35.0671651,9.27920781 C34.3105045,10.0420814 33.5140196,10.4235182 32.6378862,10.4235182 C32.0803468,10.4235182 31.6422801,10.2539907 31.3236861,9.91493579 C31.0050922,9.57588087 30.8457952,9.10968036 30.8457952,8.55871611 C30.8457952,8.30442492 30.9254437,7.83822441 31.0449164,7.07535084 L31.8414013,3.13383742 L31.8414013,3.13383742 Z M33.1556014,0.251870611 L34.0317348,0.251870611 C34.1113833,0.633307394 34.2706802,0.887598583 34.4299772,1.01474418 C34.5892742,1.14188977 34.7883954,1.2266535 35.0671651,1.2266535 C35.5848803,1.2266535 35.9831228,0.887598583 36.3017167,0.251870611 L37.1380258,0.251870611 C36.9787289,0.887598583 36.6999592,1.3537991 36.3017167,1.69285401 C35.9034743,2.03190893 35.4654076,2.20143639 34.9875166,2.20143639 C34.5096257,2.20143639 34.071559,2.03190893 33.7529651,1.69285401 C33.4343711,1.39618096 33.2352499,0.887598583 33.1556014,0.251870611 L33.1556014,0.251870611 Z" id="Shape"></path>
                            <polygon id="Shape" points="39.5673048 3.13383742 41.3593958 3.13383742 40.8416806 5.8038949 43.350608 5.8038949 43.8683232 3.13383742 45.6604142 3.13383742 44.2267414 10.2963726 42.4346504 10.2963726 43.0320141 7.28726017 40.5230866 7.28726017 39.925723 10.2963726 38.133632 10.2963726"></polygon>
                            <polygon id="Shape" points="46.2179536 5.76151304 49.7623114 5.76151304 49.4038932 7.62631509 45.8595354 7.62631509"></polygon>
                            <path d="M54.581045,7.58393322 L56.3333118,7.88060628 C56.0545421,8.72824357 55.6164754,9.36397154 55.0589359,9.78779019 C54.5013965,10.2116088 53.8243844,10.4235182 53.0677237,10.4235182 C52.1915903,10.4235182 51.5145782,10.169227 51.0366872,9.61826273 C50.518972,9.06729849 50.2800266,8.30442492 50.2800266,7.3720239 C50.2800266,6.60915033 50.4393236,5.84627677 50.7180933,5.16816693 C51.0366872,4.49005709 51.4747539,3.93909285 52.1119418,3.5152742 C52.7093055,3.13383742 53.3863177,2.92192809 54.1429783,2.92192809 C54.9394632,2.92192809 55.5766511,3.13383742 56.0545421,3.60003793 C56.532433,4.02385658 56.8112027,4.61720269 56.8510269,5.33769439 L55.1385844,5.54960371 C55.0987602,5.16816693 54.9792874,4.87149387 54.7801662,4.65958455 C54.581045,4.49005709 54.3420995,4.3629115 54.0235056,4.3629115 C53.6650874,4.3629115 53.3464934,4.49005709 53.0278995,4.78673015 C52.7093055,5.0834032 52.5101843,5.46483998 52.3110631,6.05818609 C52.1517661,6.60915033 52.0721176,7.11773271 52.0721176,7.62631509 C52.0721176,8.05013374 52.1517661,8.38918865 52.3508873,8.60109798 C52.5500085,8.8130073 52.788954,8.9401529 53.0677237,8.9401529 C53.3464934,8.9401529 53.6252631,8.8130073 53.9040328,8.60109798 C54.1828026,8.38918865 54.421748,8.05013374 54.581045,7.58393322 L54.581045,7.58393322 Z" id="Shape"></path>
                            <path d="M63.6211485,7.28726017 L59.0413604,7.28726017 L59.0413604,7.45678763 C59.0413604,7.92298814 59.1608331,8.30442492 59.4396028,8.60109798 C59.6785483,8.89777103 59.9971423,9.02491663 60.3555605,9.02491663 C60.9529241,9.02491663 61.4308151,8.68586171 61.749409,8.00775187 L63.3822031,8.30442492 C63.0636091,8.98253476 62.6255424,9.533499 62.1078272,9.87255392 C61.5901121,10.2116088 60.9927484,10.3811363 60.3157362,10.3811363 C59.3997786,10.3811363 58.6829422,10.0844632 58.1254028,9.44873527 C57.5678633,8.85538917 57.2890936,8.05013374 57.2890936,7.03296898 C57.2890936,6.05818609 57.5280391,5.16816693 58.0457543,4.40529336 C58.7625907,3.38812861 59.7581968,2.83716436 61.0325726,2.83716436 C61.8688818,2.83716436 62.5060697,3.09145555 62.9839606,3.6424198 C63.4618516,4.19338404 63.700797,4.9562576 63.700797,5.93104049 C63.7804455,6.5243866 63.700797,6.94820525 63.6211485,7.28726017 L63.6211485,7.28726017 Z M62.1078272,6.10056795 L62.1078272,5.88865863 C62.1078272,5.33769439 61.9883545,4.9562576 61.7892333,4.70196642 C61.5502878,4.44767523 61.2715181,4.32052963 60.8732757,4.32052963 C60.5148575,4.32052963 60.1564393,4.49005709 59.8776695,4.78673015 C59.5988998,5.0834032 59.3599544,5.54960371 59.2803059,6.14294982 L62.1078272,6.14294982 L62.1078272,6.10056795 Z" id="Shape"></path>
                            <path d="M65.492888,3.13383742 L67.2053306,3.13383742 L67.0460336,3.85432912 C67.4044518,3.5152742 67.76287,3.30336488 68.0814639,3.17621928 C68.4000579,3.04907369 68.7584761,2.96430996 69.1168943,2.96430996 C69.8337307,2.96430996 70.3912701,3.21860115 70.8293368,3.72718352 C71.2674035,4.2357659 71.4665247,4.99863947 71.4665247,6.05818609 C71.4665247,7.32964203 71.1081065,8.43157052 70.3514459,9.32158968 C69.714258,10.0844632 68.9575973,10.4659 68.0814639,10.4659 C67.2053306,10.4659 66.5283184,10.0844632 66.0504275,9.32158968 L65.3335911,13.0511938 L63.5016758,13.0511938 L65.492888,3.13383742 L65.492888,3.13383742 Z M66.5681426,7.2448783 C66.5681426,7.79584255 66.6876154,8.21966119 66.9663851,8.55871611 C67.2053306,8.85538917 67.5239245,9.02491663 67.8823427,9.02491663 C68.2009367,9.02491663 68.4797064,8.89777103 68.7584761,8.68586171 C69.0372458,8.47395238 69.2761913,8.05013374 69.4354883,7.54155136 C69.6346095,6.99058712 69.714258,6.5243866 69.714258,6.05818609 C69.714258,5.50722185 69.5947852,5.12578506 69.3558398,4.82911201 C69.1168943,4.53243896 68.7983003,4.40529336 68.4398821,4.40529336 C68.0814639,4.40529336 67.76287,4.53243896 67.4841003,4.78673015 C67.2053306,5.04102133 66.9663851,5.42245812 66.8070881,5.93104049 C66.6477911,6.39724101 66.5681426,6.86344152 66.5681426,7.2448783 L66.5681426,7.2448783 Z" id="Shape"></path>
                            <path d="M77.2410402,6.69391406 C77.6791069,6.82105966 77.9977009,7.03296898 78.1968221,7.28726017 C78.3959433,7.54155136 78.515416,7.88060628 78.515416,8.26204306 C78.515416,8.85538917 78.2764706,9.36397154 77.7587554,9.78779019 C77.2410402,10.2116088 76.4445553,10.4235182 75.3693007,10.4235182 C74.3736946,10.4235182 73.5772097,10.169227 73.0594945,9.57588087 C72.5417793,9.02491663 72.2630096,8.26204306 72.2630096,7.28726017 C72.2630096,6.05818609 72.6214278,5.04102133 73.29844,4.19338404 C73.9754521,3.34574674 75.0108825,2.92192809 76.3250826,2.92192809 C77.2410402,2.92192809 77.8782281,3.13383742 78.2366463,3.5152742 C78.5950645,3.89671098 78.7941857,4.3629115 78.7941857,4.82911201 C78.7941857,5.29531252 78.674713,5.63436744 78.4357675,5.93104049 C78.1171736,6.27009541 77.7189311,6.5243866 77.2410402,6.69391406 L77.2410402,6.69391406 Z M73.8958037,7.28726017 C73.8958037,7.83822441 74.0152764,8.30442492 74.2542219,8.60109798 C74.4931673,8.89777103 74.931234,9.06729849 75.5285977,9.06729849 C75.9268401,9.06729849 76.2454341,8.98253476 76.4445553,8.85538917 C76.6436765,8.72824357 76.723325,8.51633425 76.723325,8.26204306 C76.723325,7.96537001 76.6038523,7.75346068 76.3649068,7.58393322 C76.1259614,7.41440576 75.8870159,7.32964203 75.5684219,7.32964203 L73.8958037,7.32964203 L73.8958037,7.28726017 Z M74.0152764,6.14294982 L75.4091249,6.14294982 C76.0861371,6.14294982 76.5242038,6.05818609 76.7631493,5.88865863 C77.0020947,5.71913117 77.1215675,5.46483998 77.1215675,5.12578506 C77.1215675,4.87149387 77.041919,4.70196642 76.882622,4.57482082 C76.723325,4.44767523 76.4445553,4.40529336 76.0861371,4.40529336 C75.4887734,4.40529336 75.0507067,4.53243896 74.6922885,4.82911201 C74.3338703,5.0834032 74.0949249,5.54960371 74.0152764,6.14294982 L74.0152764,6.14294982 Z" id="Shape"></path>
                            <path d="M80.9845192,3.13383742 L82.8164345,3.13383742 L81.9801253,7.3720239 C81.8606526,7.88060628 81.8208283,8.17727933 81.8208283,8.30442492 C81.8208283,8.51633425 81.9004768,8.68586171 82.0199496,8.85538917 C82.1792465,8.98253476 82.3385435,9.06729849 82.577489,9.06729849 C82.736786,9.06729849 82.8960829,9.02491663 83.0553799,8.98253476 C83.2146769,8.89777103 83.3739739,8.8130073 83.5332709,8.68586171 C83.6925678,8.55871611 83.8518648,8.38918865 83.9713375,8.21966119 C84.0908103,8.05013374 84.210283,7.83822441 84.3297557,7.54155136 C84.4094042,7.32964203 84.4890527,6.99058712 84.6085255,6.5243866 L85.2855376,3.09145555 L87.1174529,3.09145555 L85.7236043,10.2539907 L84.0111618,10.2539907 L84.210283,9.27920781 C83.4536224,10.0420814 82.6571375,10.4235182 81.7810041,10.4235182 C81.2234647,10.4235182 80.785398,10.2539907 80.466804,9.91493579 C80.1482101,9.57588087 79.9889131,9.10968036 79.9889131,8.55871611 C79.9889131,8.30442492 80.0685616,7.83822441 80.1880343,7.07535084 L80.9845192,3.13383742 L80.9845192,3.13383742 Z" id="Shape"></path>
                            <path d="M91.8963622,7.58393322 L93.648629,7.88060628 C93.3698593,8.72824357 92.9317926,9.36397154 92.3742532,9.78779019 C91.8167137,10.2116088 91.1397016,10.4235182 90.3830409,10.4235182 C89.5069076,10.4235182 88.8298954,10.169227 88.3520045,9.61826273 C87.8741135,9.06729849 87.5953438,8.30442492 87.5953438,7.3720239 C87.5953438,6.60915033 87.7546408,5.84627677 88.0334105,5.16816693 C88.3520045,4.49005709 88.7900711,3.93909285 89.4272591,3.5152742 C90.0246227,3.13383742 90.7016349,2.92192809 91.4582955,2.92192809 C92.2547804,2.92192809 92.8919683,3.13383742 93.3698593,3.60003793 C93.8477502,4.02385658 94.1265199,4.61720269 94.1663442,5.33769439 L92.4539017,5.54960371 C92.4140774,5.16816693 92.2946047,4.87149387 92.0954835,4.65958455 C91.8963622,4.49005709 91.6574168,4.3629115 91.3388228,4.3629115 C90.9804046,4.3629115 90.6618106,4.49005709 90.3432167,4.78673015 C90.0246227,5.0834032 89.8255015,5.46483998 89.6263803,6.05818609 C89.4670833,6.60915033 89.3874348,7.11773271 89.3874348,7.62631509 C89.3874348,8.05013374 89.4670833,8.38918865 89.6662045,8.60109798 C89.8653258,8.8130073 90.1042712,8.9401529 90.3830409,8.9401529 C90.6618106,8.9401529 90.9405804,8.8130073 91.2193501,8.60109798 C91.4981198,8.38918865 91.7370653,8.05013374 91.8963622,7.58393322 L91.8963622,7.58393322 Z" id="Shape"></path>
                            <polygon id="Shape" points="99.2240232 3.13383742 105.317133 3.13383742 103.88346 10.2963726 102.091369 10.2963726 103.206448 4.65958455 100.69752 4.65958455 99.5824414 10.2963726 97.7903504 10.2963726"></polygon>
                            <path d="M112.166903,7.28726017 L107.587115,7.28726017 L107.587115,7.45678763 C107.587115,7.92298814 107.706587,8.30442492 107.985357,8.60109798 C108.224303,8.89777103 108.542896,9.02491663 108.901315,9.02491663 C109.498678,9.02491663 109.976569,8.68586171 110.295163,8.00775187 L111.927957,8.30442492 C111.609363,8.98253476 111.171297,9.533499 110.653581,9.87255392 C110.135866,10.2116088 109.538503,10.3811363 108.86149,10.3811363 C107.945533,10.3811363 107.228696,10.0844632 106.671157,9.44873527 C106.113618,8.85538917 105.834848,8.05013374 105.834848,7.03296898 C105.834848,6.05818609 106.073793,5.16816693 106.591509,4.40529336 C107.308345,3.38812861 108.303951,2.83716436 109.578327,2.83716436 C110.414636,2.83716436 111.051824,3.09145555 111.529715,3.6424198 C112.007606,4.19338404 112.246551,4.9562576 112.246551,5.93104049 C112.286375,6.5243866 112.246551,6.94820525 112.166903,7.28726017 L112.166903,7.28726017 Z M110.613757,6.10056795 L110.613757,5.88865863 C110.613757,5.33769439 110.494284,4.9562576 110.295163,4.70196642 C110.056218,4.44767523 109.777448,4.32052963 109.379206,4.32052963 C109.020787,4.32052963 108.662369,4.49005709 108.3836,4.78673015 C108.10483,5.0834032 107.865884,5.54960371 107.786236,6.14294982 L110.613757,6.14294982 L110.613757,6.10056795 Z" id="Shape"></path>
                            <path d="M113.998818,3.13383742 L115.711261,3.13383742 L115.551964,3.85432912 C115.910382,3.5152742 116.2688,3.30336488 116.587394,3.17621928 C116.905988,3.04907369 117.264406,2.96430996 117.622824,2.96430996 C118.339661,2.96430996 118.8972,3.21860115 119.335267,3.72718352 C119.773333,4.2357659 119.972455,4.99863947 119.972455,6.05818609 C119.972455,7.32964203 119.614037,8.43157052 118.857376,9.32158968 C118.220188,10.0844632 117.463527,10.4659 116.587394,10.4659 C115.711261,10.4659 115.034248,10.0844632 114.556357,9.32158968 L113.839521,13.0511938 L112.007606,13.0511938 L113.998818,3.13383742 L113.998818,3.13383742 Z M115.113897,7.2448783 C115.113897,7.79584255 115.23337,8.21966119 115.512139,8.55871611 C115.751085,8.85538917 116.069679,9.02491663 116.428097,9.02491663 C116.746691,9.02491663 117.025461,8.89777103 117.30423,8.68586171 C117.583,8.47395238 117.821945,8.05013374 117.981242,7.54155136 C118.180364,6.99058712 118.260012,6.5243866 118.260012,6.05818609 C118.260012,5.50722185 118.140539,5.12578506 117.901594,4.82911201 C117.662649,4.53243896 117.344055,4.40529336 116.985636,4.40529336 C116.627218,4.40529336 116.308624,4.53243896 116.029854,4.78673015 C115.751085,5.04102133 115.512139,5.42245812 115.352842,5.93104049 C115.153721,6.39724101 115.113897,6.86344152 115.113897,7.2448783 L115.113897,7.2448783 Z" id="Shape"></path>
                            <path d="M126.981522,7.28726017 L122.401734,7.28726017 L122.401734,7.45678763 C122.401734,7.92298814 122.521206,8.30442492 122.799976,8.60109798 C123.038922,8.89777103 123.357515,9.02491663 123.715934,9.02491663 C124.313297,9.02491663 124.791188,8.68586171 125.109782,8.00775187 L126.742576,8.30442492 C126.423982,8.98253476 125.985916,9.533499 125.4682,9.87255392 C124.950485,10.2116088 124.353122,10.3811363 123.676109,10.3811363 C122.760152,10.3811363 122.043315,10.0844632 121.485776,9.44873527 C120.928237,8.85538917 120.649467,8.05013374 120.649467,7.03296898 C120.649467,6.05818609 120.888412,5.16816693 121.406128,4.40529336 C122.122964,3.38812861 123.11857,2.83716436 124.392946,2.83716436 C125.229255,2.83716436 125.866443,3.09145555 126.344334,3.6424198 C126.822225,4.19338404 127.06117,4.9562576 127.06117,5.93104049 C127.100994,6.5243866 127.06117,6.94820525 126.981522,7.28726017 L126.981522,7.28726017 Z M125.428376,6.10056795 L125.428376,5.88865863 C125.428376,5.33769439 125.308903,4.9562576 125.109782,4.70196642 C124.870837,4.44767523 124.592067,4.32052963 124.193825,4.32052963 C123.795582,4.32052963 123.476988,4.49005709 123.198219,4.78673015 C122.919449,5.0834032 122.680503,5.54960371 122.600855,6.14294982 L125.428376,6.14294982 L125.428376,6.10056795 Z" id="Shape"></path>
                            <path d="M132.795861,6.69391406 C133.233928,6.82105966 133.552522,7.03296898 133.751643,7.28726017 C133.950765,7.54155136 134.070237,7.88060628 134.070237,8.26204306 C134.070237,8.85538917 133.831292,9.36397154 133.313577,9.78779019 C132.795861,10.2116088 131.999377,10.4235182 130.924122,10.4235182 C129.928516,10.4235182 129.132031,10.169227 128.614316,9.57588087 C128.096601,9.02491663 127.817831,8.26204306 127.817831,7.28726017 C127.817831,6.05818609 128.176249,5.04102133 128.853261,4.19338404 C129.530273,3.34574674 130.565704,2.92192809 131.879904,2.92192809 C132.795861,2.92192809 133.433049,3.13383742 133.791468,3.5152742 C134.149886,3.89671098 134.349007,4.3629115 134.349007,4.82911201 C134.349007,5.29531252 134.229534,5.63436744 133.990589,5.93104049 C133.671995,6.27009541 133.313577,6.5243866 132.795861,6.69391406 L132.795861,6.69391406 Z M129.490449,7.28726017 C129.490449,7.83822441 129.609922,8.30442492 129.848867,8.60109798 C130.087813,8.89777103 130.52588,9.06729849 131.123243,9.06729849 C131.521486,9.06729849 131.84008,8.98253476 132.039201,8.85538917 C132.238322,8.72824357 132.317971,8.51633425 132.317971,8.26204306 C132.317971,7.96537001 132.198498,7.75346068 131.959552,7.58393322 C131.720607,7.41440576 131.481661,7.32964203 131.163067,7.32964203 L129.490449,7.32964203 L129.490449,7.28726017 Z M129.570098,6.14294982 L130.963946,6.14294982 C131.640958,6.14294982 132.079025,6.05818609 132.317971,5.88865863 C132.556916,5.71913117 132.676389,5.46483998 132.676389,5.12578506 C132.676389,4.87149387 132.59674,4.70196642 132.437443,4.57482082 C132.278146,4.44767523 131.999377,4.40529336 131.640958,4.40529336 C131.043595,4.40529336 130.605528,4.53243896 130.24711,4.82911201 C129.928516,5.0834032 129.68957,5.54960371 129.570098,6.14294982 L129.570098,6.14294982 Z" id="Shape"></path>
                            <path d="M135.065843,7.32964203 C135.065843,6.01580422 135.424262,4.9562576 136.141098,4.15100217 C136.857934,3.34574674 137.773892,2.96430996 138.928795,2.96430996 C139.924401,2.96430996 140.681062,3.26098301 141.238601,3.85432912 C141.796141,4.44767523 142.07491,5.21054879 142.07491,6.22771355 C142.07491,7.3720239 141.716492,8.38918865 141.03948,9.23682595 C140.322644,10.0844632 139.406686,10.5082819 138.251783,10.5082819 C137.614595,10.5082819 137.057056,10.3811363 136.579165,10.0844632 C136.101274,9.83017206 135.742856,9.44873527 135.464086,8.9401529 C135.185316,8.38918865 135.065843,7.88060628 135.065843,7.32964203 L135.065843,7.32964203 Z M140.282819,5.93104049 C140.282819,5.46483998 140.163347,5.12578506 139.924401,4.82911201 C139.685456,4.53243896 139.366862,4.40529336 138.968619,4.40529336 C138.570377,4.40529336 138.211959,4.53243896 137.933189,4.78673015 C137.614595,5.04102133 137.37565,5.42245812 137.216353,5.93104049 C137.057056,6.43962287 136.977407,6.86344152 136.977407,7.28726017 C136.977407,7.79584255 137.09688,8.21966119 137.37565,8.51633425 C137.654419,8.8130073 137.973013,8.98253476 138.371256,8.98253476 C138.888971,8.98253476 139.287213,8.77062544 139.645632,8.30442492 C140.043874,7.62631509 140.282819,6.86344152 140.282819,5.93104049 L140.282819,5.93104049 Z" id="Shape"></path>
                            <path d="M144.703311,5.04102133 L143.189989,4.78673015 C143.66788,3.55765607 144.583838,2.96430996 145.977686,2.96430996 C146.774171,2.96430996 147.371535,3.13383742 147.769777,3.5152742 C148.16802,3.89671098 148.367141,4.32052963 148.367141,4.87149387 C148.367141,5.33769439 148.207844,5.71913117 147.929074,6.01580422 C147.650305,6.31247728 147.291887,6.5243866 146.933468,6.60915033 C147.291887,6.69391406 147.570656,6.86344152 147.809602,7.20249644 C148.048547,7.49916949 148.16802,7.83822441 148.16802,8.21966119 C148.16802,8.77062544 147.929074,9.27920781 147.451184,9.74540833 C146.973293,10.2116088 146.176808,10.4235182 145.141377,10.4235182 C143.548408,10.4235182 142.592626,9.74540833 142.274032,8.43157052 L143.986474,8.26204306 C144.185595,8.9401529 144.623662,9.23682595 145.26085,9.23682595 C145.579444,9.23682595 145.858214,9.15206222 146.057335,8.9401529 C146.256456,8.72824357 146.375929,8.47395238 146.375929,8.21966119 C146.375929,7.88060628 146.256456,7.66869695 146.057335,7.49916949 C145.858214,7.3720239 145.53962,7.28726017 145.061729,7.28726017 L145.221026,6.10056795 C145.659092,6.10056795 145.937862,6.10056795 146.136983,6.05818609 C146.336105,6.01580422 146.495402,5.93104049 146.614874,5.71913117 C146.774171,5.54960371 146.813996,5.33769439 146.813996,5.0834032 C146.813996,4.82911201 146.734347,4.61720269 146.535226,4.44767523 C146.375929,4.27814777 146.136983,4.19338404 145.898038,4.19338404 C145.380323,4.2357659 145.021905,4.49005709 144.703311,5.04102133 L144.703311,5.04102133 Z" id="Shape"></path>
                            <path d="M149.123802,7.32964203 C149.123802,6.01580422 149.48222,4.9562576 150.199056,4.15100217 C150.915893,3.34574674 151.83185,2.96430996 152.986754,2.96430996 C153.98236,2.96430996 154.73902,3.26098301 155.29656,3.85432912 C155.854099,4.44767523 156.132869,5.21054879 156.132869,6.22771355 C156.132869,7.3720239 155.774451,8.38918865 155.097438,9.23682595 C154.380602,10.0844632 153.464644,10.5082819 152.309741,10.5082819 C151.672553,10.5082819 151.115014,10.3811363 150.637123,10.0844632 C150.159232,9.83017206 149.800814,9.44873527 149.522044,8.9401529 C149.243275,8.38918865 149.123802,7.88060628 149.123802,7.32964203 L149.123802,7.32964203 Z M154.340778,5.93104049 C154.340778,5.46483998 154.221305,5.12578506 153.98236,4.82911201 C153.743414,4.53243896 153.42482,4.40529336 153.026578,4.40529336 C152.628335,4.40529336 152.269917,4.53243896 151.991147,4.78673015 C151.712378,5.04102133 151.433608,5.42245812 151.274311,5.93104049 C151.115014,6.43962287 151.035366,6.86344152 151.035366,7.28726017 C151.035366,7.79584255 151.154838,8.21966119 151.433608,8.51633425 C151.712378,8.8130073 152.030972,8.98253476 152.429214,8.98253476 C152.946929,8.98253476 153.345172,8.77062544 153.70359,8.30442492 C154.062008,7.62631509 154.340778,6.86344152 154.340778,5.93104049 L154.340778,5.93104049 Z" id="Shape"></path>
                            <path d="M158.004608,3.13383742 L159.796699,3.13383742 L159.199336,6.18533168 C159.51793,6.18533168 159.796699,6.10056795 159.916172,5.97342236 C160.075469,5.84627677 160.27459,5.54960371 160.513536,5.0834032 C160.991427,4.19338404 161.349845,3.6424198 161.628615,3.43051047 C161.907384,3.21860115 162.345451,3.13383742 162.982639,3.13383742 L163.46053,3.13383742 L163.221584,4.44767523 L162.982639,4.44767523 C162.783518,4.44767523 162.664045,4.49005709 162.584396,4.57482082 C162.504748,4.65958455 162.385275,4.82911201 162.225978,5.0834032 C161.827736,5.76151304 161.548966,6.18533168 161.349845,6.35485914 C161.150724,6.5243866 160.911778,6.6515322 160.672833,6.69391406 C161.110899,6.77867779 161.429493,7.20249644 161.628615,7.92298814 L162.265803,10.3387544 L160.55336,10.3387544 L159.995821,8.21966119 C159.876348,7.79584255 159.756875,7.54155136 159.637402,7.41440576 C159.51793,7.28726017 159.278984,7.2448783 158.96039,7.2448783 L158.323202,10.2963726 L156.531111,10.2963726 L158.004608,3.13383742 L158.004608,3.13383742 Z" id="Shape"></path>
                        </g>
                    </g>
                    <rect id="Rectangle-19" fill="#FEC200" x="100.271293" y="185.42236" width="10.2681388" height="6"></rect>
                    <rect id="Rectangle-19-Copy" fill="#FEC200" x="225.0347" y="185.42236" width="10.2681388" height="6"></rect>
                    <path d="M39.5,7.5 L39.5,182.5 L311.5,182.5 L311.5,7.5 L39.5,7.5 Z" id="Rectangle-11-Copy" stroke="#252525" opacity="0.400000006"></path>
                    <rect id="Rectangle-15" stroke="#252525" fill="#5E5E5E" x="63.3044164" y="194.181345" width="258.637224" height="4.8136646"></rect>
                    <rect id="Rectangle-15-Copy" stroke="#252525" fill="#5E5E5E" x="85.0918696" y="198.541593" width="236.849771" height="11.1868884"></rect>
                    <rect id="Rectangle-15-Copy-2" stroke="#252525" fill="#5E5E5E" x="237.5" y="208.715507" width="84" height="7.72049689"></rect>
                    <rect id="Rectangle-16" stroke="#252525" fill="#5E5E5E" x="72.1056782" y="198.541593" width="13.6687697" height="14.9875776"></rect>
                    <polygon id="Rectangle-16-Copy-3" fill="#252525" points="126.986533 217.662711 132.854041 217.662711 132.854041 240.378882 126.986533 246.731034"></polygon>
                    <rect id="Rectangle-16-Copy" stroke="#252525" fill="#5E5E5E" x="98.9131345" y="198.541593" width="13.6687697" height="14.9875776" rx="2"></rect>
                    <rect id="Rectangle-16-Copy-2" stroke="#252525" fill="#5E5E5E" x="223.599082" y="198.541593" width="13.6687697" height="14.9875776" rx="2"></rect>
                    <g id="кабина" transform="translate(322.441640, 82.768302)">
                        <polygon id="Path-54" fill="#252525" points="134.219243 130.534161 64.5425868 144.341615 66.7429022 122.540373 92.4132492 103.645963 129.818612 114.546584"></polygon>
                        <path d="M64.1840833,143.726805 C65.6618288,138.056736 67.8390799,132.845644 70.7158387,128.095044 C74.0666551,122.561598 76.4964322,119.417501 80.3724812,116.421926 C85.6251301,112.362457 92.3639092,110.023256 101.195471,109.686698 C109.919098,109.354253 117.477927,112.456624 123.554494,117.99555 C128.124223,122.160961 131.566195,127.611026 132.503733,131.326766 C133.451593,135.083413 134.170654,139.230561 134.661357,143.768446 C151.625285,141.18256 151.735043,141.165829 162.747997,139.487076 C167.589475,138.749068 170.249571,134.224751 171.310103,126.864102 C171.754773,123.777857 171.858044,121.154832 171.858044,116.726708 C171.858044,112.610382 170.563467,110.686335 167.957413,110.686335 L167.457413,110.686335 L167.457413,110.186335 C167.457413,107.792329 166.96969,102.718229 165.994468,94.9880486 C165.047098,87.4786357 151.676266,77.1210031 125.926115,64.1233793 L125.7995,64.0321979 L117.026493,55.3376273 C89.6389697,32.0780259 72.2780941,17.0569425 64.93655,10.2677132 C58.0765814,3.92382972 38.0524236,0.771825728 4.98129503,0.909292223 C2.50333374,0.919592345 0.499994662,2.93127599 0.499994662,5.40925867 L0.5,138.161491 C0.5,140.094487 2.06700338,141.661491 4,141.661491 L56.4747634,141.661491 L56.6051974,141.678803 L64.1840827,143.726805 Z" id="Path-24" stroke="#252525" fill="#D1B76B"></path>
                        <path d="M86.5583596,64.2316985 C95.1469517,51.7401941 97.1469517,53.9068607 92.5583596,70.7316985 C91.0583596,76.2316985 82.5583596,88.7316985 78.5583596,84.7316985 C75.891693,82.0650318 78.5583596,75.2316985 86.5583596,64.2316985 Z" id="Path-24-Copy-4" fill="#000000" opacity="0.100000001"></path>
                        <path d="M117.05836,56.2316985 C109.725026,49.5650318 104.225026,44.7316985 100.55836,41.7316985 C95.0583596,37.2316985 76.0583596,20.7316985 72.5583596,17.7316985 C70.2250263,15.7316985 68.2250263,13.8983651 66.5583596,12.2316985 L65.5583596,14.7316985 L113.05836,60.2316985 L117.05836,56.2316985 Z" id="Path-30" fill="#E5EEF7"></path>
                        <path d="M102.681388,66.5838509 C102.681388,61.4968944 100.383494,54.4763418 91.6798107,44.0559006 C79.944795,30.0062112 69.4321767,20.0745342 60.1419558,14.2608696 L65.2760252,9.90062112 L66.6598162,11.3349949 L66.0094637,14.2608696 L112.949527,59.3167702 L117.350158,54.9565217 L126.15142,63.6770186 C124.684543,65.6149068 121.995268,66.5838509 118.083596,66.5838509 C108.548896,66.5838509 106.34858,66.5838509 102.681388,66.5838509 Z" id="Path-24-Copy-2" stroke="#252525" fill="#252525"></path>
                        <path d="M167.957413,110.186335 C168.690852,110.186335 172.358044,110.186335 172.358044,116.726708 C172.358044,123.267081 172.358044,138.52795 162.823344,139.981366 C156.466877,140.950311 146.932177,142.403727 134.219243,144.341615 C134.219243,141.075791 133.730284,137.50499 132.752366,133.629214 C132.086121,130.98869 129.818612,124.182009 124.573328,119.149102 C127.092266,117.049701 128.840694,115.757764 129.818612,115.273292 C142.347429,115.207913 150.659732,115.207913 154.755521,115.273292 C163.490368,115.412721 167.383017,112.178275 167.957413,110.186335 Z" id="Path-24-Copy" stroke="#252525" fill="#989898"></path>
                        <path d="M0,8.44720497 C20.5362776,8.44720497 33.0047319,8.44720497 37.4053628,8.44720497 C44.0063091,8.44720497 56.4747634,9.90062112 68.2097792,20.0745342 C79.944795,30.2484472 102.681388,52.0496894 102.681388,66.5838509 C102.681388,76.2732919 102.681388,88.3850932 102.681388,102.919255 C90.4574132,103.403727 80.9227129,107.279503 74.0772871,114.546584 C67.2318612,121.813665 62.0977918,129.322981 58.6750789,137.074534 L22.3667221,137.074536 C19.6972945,137.074536 17.4986554,134.9776 17.3723226,132.311163 C16.547872,114.909939 16.1356467,102.205804 16.1356467,94.1987578 C16.1356467,85.4782609 16.1356467,56.8944099 16.1356467,8.44720497" id="Path-31" stroke="#252525"></path>
                        <path d="M0,132.714286 L17.6025237,132.714286 C19.2780887,135.621118 22.4563221,137.074534 27.137224,137.074534 C31.8181259,137.074534 42.3307442,137.074534 58.6750789,137.074534 C62.0764533,129.174942 65.0102072,123.666254 67.4763407,120.548469 C76.5869052,109.030527 89.1188434,102.919255 102.681388,102.919255 C114.829441,102.919255 123.875182,107.037267 129.818612,115.273292 L124.684543,118.906832 C117.839117,113.093168 110.504732,110.186335 102.681388,110.186335 C90.9463722,110.186335 79.944795,114.008096 72.6104101,124.182009 C67.7208202,130.964618 65.1537855,137.684486 64.909306,144.341615 L56.4747634,142.161491 L4,142.161491 C1.790861,142.161491 4.19476067e-15,140.37063 0,138.161491 L0,132.714286 Z" id="Path-32" stroke="#252525" fill="#A5A5A5"></path>
                        <path d="M165.757098,106.552795 C165.023659,103.645963 165.023659,94.9254658 162.089905,92.0186335 C160.134069,90.0807453 156.466877,88.1428571 151.088328,86.2049689 C149.621451,87.173913 149.621451,90.0807453 151.088328,94.9254658 C153.288644,102.192547 157.835962,107.279503 165.757098,106.552795 Z" id="Path-33" stroke="#252525" fill="#D2E5F8"></path>
                        <rect id="Rectangle-13" stroke="#252525" fill="#FEC200" x="109.515773" y="85.7049689" width="8.33438486" height="5.36024845" rx="1"></rect>
                        <path d="M151.088328,86.2049689 C146.198738,80.3913043 136.908517,73.6086957 123.217666,65.8571429" id="Path-34" stroke="#252525"></path>
                        <path d="M109.815457,88.3850932 L6.59828902,88.3850932 C2.19942967,88.8695652 5.13472769e-15,87.6583851 0,84.7515528" id="Path-39" stroke="#252525"></path>
                        <path d="M68.2097792,119.63354 L7.33438486,119.63354 C2.44479495,120.118012 3.21642251e-15,118.664596 0,115.273292" id="Path-41" stroke="#252525"></path>
                        <path d="M16.3690852,81.3447205 L16.3690852,67.810559 L13.2681388,67.810559 C11.8874269,67.810559 10.7681388,68.9298471 10.7681388,70.310559 L10.7681388,78.8447205 C10.7681388,80.2254324 11.8874269,81.3447205 13.2681388,81.3447205 L16.3690852,81.3447205 Z" id="Rectangle-14" stroke="#252525" fill="#D8D8D8"></path>
                        <path d="M16.2018927,67.310559 L16.8690852,67.310559 L16.8690852,81.8447205 L16.2018927,81.8447205 C14.5450385,81.8447205 13.2018927,80.5015747 13.2018927,78.8447205 L13.2018927,70.310559 C13.2018927,68.6537048 14.5450385,67.310559 16.2018927,67.310559 Z" id="Rectangle-14-Copy" fill="#252525"></path>
                        <path d="M23.5856981,13.3921051 C41.318817,12.6207654 52.0373593,13.1525896 55.7413249,14.9875776 C61.6088328,17.8944099 81.4116719,36.7888199 87.2791798,44.0559006 C93.1466877,51.3229814 97.5473186,58.5900621 96.8138801,62.2236025 C96.0804416,65.8571429 91.6798107,65.8571429 81.4116719,65.8571429 C71.1435331,65.8571429 49.1403785,65.1304348 39.6056782,64.4037267 C30.0709779,63.6770186 23.4700315,65.1304348 22.7365931,51.3229814 C22.2790263,42.708991 21.6073645,31.1251756 20.7216077,16.571535 L20.7215911,16.571536 C20.6209381,14.9177327 21.8800152,13.4954649 23.5338185,13.3948119 C23.5511036,13.3937599 23.5683974,13.3928576 23.5856981,13.3921051 Z" id="Path-48" stroke="#252525" fill="#E5EEF7"></path>
                        <path d="M80.6782334,51.5112016 C78.4538952,52.4115299 77.2314977,53.380474 77.011041,54.4180339 C76.893405,54.9716775 71.1356276,51.2442797 71.1435331,52.9646177 C71.1461035,53.5239696 62.162591,55.5996249 63.0757098,58.2107932 C63.4422109,59.2588456 66.0094637,63.1385308 66.0094637,65.8571429 C66.0094637,66.605933 69.1876972,66.605933 75.544164,65.8571429 C90.2129338,66.9515671 97.5473186,65.803127 97.5473186,62.4118227 C97.5473186,52.2379096 91.9242902,48.6043693 80.6782334,51.5112016 Z" id="Path-49" stroke="#252525" fill="#252525"></path>
                        <path d="M87.4680615,43.8915344 L84.8872703,47.0925248 C84.3855781,47.7147805 84.1119874,48.4900113 84.1119874,49.2893218 L84.1119874,67.9484983 C84.1119874,68.914637 84.5113505,69.8378036 85.2154822,70.499334 L87.5087251,72.6538312 C91.3801218,73.198439 93.3801262,69.1227486 93.3801262,60.0434783 C93.3801262,50.3241884 91.3645779,44.9830637 87.4680615,43.8915344 Z" id="Path-49-Copy" stroke="#252525" fill="#E5EEF7"></path>
                        <path d="M87.2791798,43.3291925 L87.2791798,73.1242236 C91.6798107,73.865881 93.8801262,69.5056325 93.8801262,60.0434783 C93.8801262,49.8695652 91.6798107,44.2981366 87.2791798,43.3291925 Z" id="Path-49-Copy-2" stroke="#252525" fill="#D1B76B"></path>
                        <path d="M87.2791798,66.7316985 L87.2791798,73.1242236 C91.6798107,73.865881 93.8801262,69.5056325 93.8801262,60.0434783 C92.6656151,64.5022917 90.4652997,66.7316985 87.2791798,66.7316985 Z" id="Path-49-Copy-3" fill="#000000" opacity="0.100000001"></path>
                        <path d="M58.721926,60.7881962 L74.8418992,46.1471522 C75.2355882,45.7895823 75.8402804,45.8027158 76.2180731,46.1770417 L76.9956999,46.9475326 C77.3880201,47.3362527 77.3909386,47.9694109 77.0022185,48.3617312 C76.9898653,48.3741988 76.977186,48.386339 76.9641938,48.3981392 L60.8442206,63.0391832 C60.4505317,63.3967531 59.8458395,63.3836196 59.4680468,63.0092937 L58.6904199,62.2388028 C58.2980997,61.8500827 58.2951813,61.2169245 58.6839013,60.8246043 C58.6962545,60.8121366 58.7089338,60.7999964 58.721926,60.7881962 Z" id="Path-50" stroke="#252525" fill="#252525"></path>
                        <polygon id="Path-51" fill="#252525" fill-rule="nonzero" points="62.3327845 64.9654043 56.4652766 15.5492553 53.5504962 14.4259 59.4180041 65.2954652"></polygon>
                        <path d="M40.3391167,12.7223817 L46.2066246,64.5919469" id="Path-53" stroke="#252525"></path>
                        <path d="M118.283912,88.3850932 L134.050511,88.3850932 C142.015432,88.3850932 147.327985,89.3540373 149.98817,91.2919255" id="Path-56" stroke="#252525" stroke-linecap="round"></path>
                    </g>
                    <g id="Group-10" transform="translate(391.384858, 196.588177)">
                        <ellipse id="Oval-6" stroke="#252525" stroke-width="2" fill="#5E5E5E" cx="30.8044164" cy="30.5217391" rx="30.8044164" ry="30.5217391"></ellipse>
                        <ellipse id="Oval-6-Copy" stroke="#252525" fill="#A5A5A5" cx="30.8044164" cy="30.5217391" rx="20.8663826" ry="20.6749019"></ellipse>
                        <ellipse id="Oval-6-Copy-2" stroke="#252525" fill="#8E8E8E" cx="30.8044164" cy="30.5217391" rx="16.1372307" ry="15.9891471"></ellipse>
                        <ellipse id="Oval-6-Copy-3" stroke="#252525" fill="#979797" cx="30.8044164" cy="30.5217391" rx="6.73040686" ry="6.66864516"></ellipse>
                        <path d="M29.1261438,17.2245457 L32.482689,17.2245457 C33.0349738,17.2245457 33.482689,17.6722609 33.482689,18.2245457 L33.482689,20.2050888 C33.482689,20.7573735 33.0349738,21.2050888 32.482689,21.2050888 L29.1261438,21.2050888 C28.573859,21.2050888 28.1261438,20.7573735 28.1261438,20.2050888 L28.1261438,18.2245457 C28.1261438,17.6722609 28.573859,17.2245457 29.1261438,17.2245457 Z M40.1942976,20.9043953 L42.3066399,23.5129209 C42.654204,23.9421268 42.5880202,24.5718232 42.1588144,24.9193872 L40.6196433,26.1657834 C40.1904374,26.5133475 39.560741,26.4471637 39.2131769,26.0179578 L37.1008346,23.4094323 C36.7532705,22.9802264 36.8194543,22.35053 37.2486602,22.0029659 L38.7878312,20.7565698 C39.2170371,20.4090057 39.8467335,20.4751895 40.1942976,20.9043953 Z M44.2184782,31.8151145 L43.4634198,35.0856317 C43.3391828,35.6237615 42.8022284,35.9592878 42.2640987,35.8350507 L40.3343168,35.3895255 C39.7961871,35.2652885 39.4606607,34.7283341 39.5848978,34.1902044 L40.3399562,30.9196872 C40.4641932,30.3815575 41.0011476,30.0460311 41.5392773,30.1702682 L43.4690592,30.6157934 C44.0071889,30.7400305 44.3427152,31.2769848 44.2184782,31.8151145 Z M38.1240659,41.7074726 L35.1072231,43.1788851 C34.6108328,43.4209908 34.0121636,43.2148525 33.7700579,42.7184622 L32.9018449,40.9383619 C32.6597392,40.4419717 32.8658776,39.8433024 33.3622678,39.6011967 L36.3791107,38.1297841 C36.8755009,37.8876784 37.4741702,38.0938168 37.7162759,38.590207 L38.5844888,40.3703074 C38.8265945,40.8666976 38.6204562,41.4653669 38.1240659,41.7074726 Z M26.5016097,43.1788851 L23.4847669,41.7074726 C22.9883766,41.4653669 22.7822383,40.8666976 23.024344,40.3703074 L23.8925569,38.590207 C24.1346626,38.0938168 24.7333319,37.8876784 25.2297221,38.1297841 L28.246565,39.6011967 C28.7429552,39.8433024 28.9490936,40.4419717 28.7069879,40.9383619 L27.8387749,42.7184622 C27.5966692,43.2148525 26.998,43.4209908 26.5016097,43.1788851 Z M18.145413,35.0856317 L17.3903546,31.8151145 C17.2661176,31.2769848 17.6016439,30.7400305 18.1397736,30.6157934 L20.0695555,30.1702682 C20.6076852,30.0460311 21.1446396,30.3815575 21.2688766,30.9196872 L22.023935,34.1902044 C22.1481721,34.7283341 21.8126457,35.2652885 21.274516,35.3895255 L19.3447341,35.8350507 C18.8066044,35.9592878 18.26965,35.6237615 18.145413,35.0856317 Z M19.3021929,23.5129209 L21.4145352,20.9043953 C21.7620993,20.4751895 22.3917957,20.4090057 22.8210016,20.7565698 L24.3601727,22.0029659 C24.7893785,22.35053 24.8555623,22.9802264 24.5079982,23.4094323 L22.3956559,26.0179578 C22.0480918,26.4471637 21.4183954,26.5133475 20.9891895,26.1657834 L19.4500184,24.9193872 C19.0208126,24.5718232 18.9546288,23.9421268 19.3021929,23.5129209 Z" id="Path" fill="#252525"></path>
                    </g>
                    <polygon id="Path-3-Copy" fill="#000000" opacity="0.149999991" points="7 88 35 4 34.5 194 6.5 194"></polygon>
                    <g id="Group-10-Copy" transform="translate(143.325336, 202.418192)">
                        <ellipse id="Oval-6" stroke="#252525" stroke-width="2" fill="#5E5E5E" cx="28.145234" cy="27.6287973" rx="28.145234" ry="27.6287973"></ellipse>
                        <ellipse id="Oval-6-Copy-4" stroke="#252525" fill="#EFEFEF" cx="28.145234" cy="27.6287973" rx="19.0650982" ry="18.7152728"></ellipse>
                        <ellipse id="Oval-6-Copy-5" stroke="#252525" fill="#A5A5A5" cx="28.145234" cy="27.6287973" rx="16.2960249" ry="15.9970092"></ellipse>
                        <ellipse id="Oval-6-Copy-2" stroke="#252525" fill="#EFEFEF" cx="28.145234" cy="27.6287973" rx="7.66868158" ry="7.52796899"></ellipse>
                        <ellipse id="Oval-6-Copy-3" stroke="#252525" fill="#979797" cx="28.145234" cy="27.6287973" rx="4.84024865" ry="4.75143496"></ellipse>
                        <path d="M26.3543189,13.9584171 L29.9361491,13.9584171 C30.4884339,13.9584171 30.9361491,14.4061323 30.9361491,14.9584171 L30.9361491,17.067974 C30.9361491,17.6202587 30.4884339,18.067974 29.9361491,18.067974 L26.3543189,18.067974 C25.8020342,18.067974 25.3543189,17.6202587 25.3543189,17.067974 L25.3543189,14.9584171 C25.3543189,14.4061323 25.8020342,13.9584171 26.3543189,13.9584171 Z M37.8886448,17.7122677 L40.1427636,20.4958725 C40.4903277,20.9250784 40.4241439,21.5547748 39.994938,21.9023389 L38.3555044,23.2299261 C37.9262985,23.5774901 37.2966021,23.5113064 36.9490381,23.0821005 L34.6949193,20.2984957 C34.3473552,19.8692898 34.413539,19.2395934 34.8427449,18.8920293 L36.4821785,17.5644421 C36.9113843,17.2168781 37.5410808,17.2830618 37.8886448,17.7122677 Z M42.1142162,28.9651275 L41.3084797,32.4551556 C41.1842427,32.9932853 40.6472883,33.3288116 40.1091586,33.2045746 L38.0536695,32.7300276 C37.5155398,32.6057905 37.1800135,32.0688362 37.3042505,31.5307064 L38.109987,28.0406784 C38.234224,27.5025486 38.7711784,27.1670223 39.3093081,27.2912593 L41.3647972,27.7658064 C41.9029269,27.8900434 42.2384532,28.4269978 42.1142162,28.9651275 Z M35.8021173,39.2093285 L32.5827897,40.7794995 C32.0863994,41.0216052 31.4877302,40.8154669 31.2456245,40.3190766 L30.3208556,38.4230195 C30.0787499,37.9266292 30.2848882,37.32796 30.7812785,37.0858543 L34.0006061,35.5156833 C34.4969964,35.2735776 35.0956656,35.4797159 35.3377713,35.9761062 L36.2625402,37.8721633 C36.5046459,38.3685536 36.2985075,38.9672228 35.8021173,39.2093285 Z M23.7076784,40.7794995 L20.4883508,39.2093285 C19.9919605,38.9672228 19.7858222,38.3685536 20.0279279,37.8721633 L20.9526968,35.9761062 C21.1948025,35.4797159 21.7934717,35.2735776 22.2898619,35.5156833 L25.5091896,37.0858543 C26.0055798,37.32796 26.2117182,37.9266292 25.9696125,38.4230195 L25.0448436,40.3190766 C24.8027379,40.8154669 24.2040686,41.0216052 23.7076784,40.7794995 Z M14.9819884,32.4551556 L14.1762519,28.9651275 C14.0520148,28.4269978 14.3875412,27.8900434 14.9256709,27.7658064 L16.98116,27.2912593 C17.5192897,27.1670223 18.0562441,27.5025486 18.1804811,28.0406784 L18.9862176,31.5307064 C19.1104546,32.0688362 18.7749283,32.6057905 18.2367986,32.7300276 L16.1813095,33.2045746 C15.6431797,33.3288116 15.1062254,32.9932853 14.9819884,32.4551556 Z M16.1477045,20.4958725 L18.4018232,17.7122677 C18.7493873,17.2830618 19.3790837,17.2168781 19.8082896,17.5644421 L21.4477232,18.8920293 C21.8769291,19.2395934 21.9431128,19.8692898 21.5955488,20.2984957 L19.34143,23.0821005 C18.9938659,23.5113064 18.3641695,23.5774901 17.9349636,23.2299261 L16.29553,21.9023389 C15.8663242,21.5547748 15.8001404,20.9250784 16.1477045,20.4958725 Z" id="Path" fill="#252525"></path>
                    </g>
                </g>
            </g>
        </g>
    </g>
</svg>